<svg width="360" height="224" viewBox="0 0 360 224" fill="none" xmlns="http://www.w3.org/2000/svg">
<path fill-rule="evenodd" clip-rule="evenodd" d="M230.661 72.3736L197.137 60.1718L226.399 46.6046C227.586 46.0508 228.653 45.2686 229.538 44.3025C230.424 43.3364 231.11 42.2054 231.558 40.974C232.006 39.7427 232.207 38.4352 232.15 37.1261C232.093 35.817 231.779 34.5319 231.225 33.3443C230.671 32.1568 229.889 31.0899 228.923 30.2046C227.957 29.3194 226.826 28.6331 225.594 28.1849C223.108 27.2798 220.363 27.3996 217.965 28.518L176.026 48.152L156.519 6.15368C155.965 4.96609 155.183 3.89922 154.217 3.01395C153.251 2.12869 152.12 1.44238 150.889 0.994216C149.657 0.546048 148.35 0.344796 147.041 0.401954C145.731 0.459109 144.446 0.773555 143.259 1.32733C142.071 1.88111 141.004 2.66338 140.119 3.62948C139.234 4.59557 138.548 5.72657 138.099 6.9579C137.651 8.18923 137.45 9.49678 137.507 10.8059C137.564 12.115 137.879 13.4 138.433 14.5876L152.127 43.7894L118.603 31.5876C111.173 28.8833 102.973 29.2414 95.807 32.5829C88.6411 35.9245 83.096 41.9758 80.3917 49.4058L46.4034 142.788C43.6991 150.218 44.0571 158.418 47.3987 165.584C50.7402 172.75 56.7916 178.295 64.2215 180.999L176.28 221.785C183.71 224.489 191.91 224.131 199.076 220.79C206.242 217.448 211.787 211.397 214.491 203.967L248.48 110.585C251.184 103.155 250.826 94.9549 247.484 87.789C244.143 80.623 238.091 75.0779 230.661 72.3736ZM195.815 197.169C194.913 199.646 193.065 201.663 190.676 202.777C188.288 203.891 185.554 204.01 183.078 203.109L71.0192 162.323C68.5426 161.421 66.5254 159.573 65.4116 157.184C64.2977 154.796 64.1784 152.062 65.0798 149.586L99.0682 56.2034C99.9696 53.7268 101.818 51.7097 104.207 50.5958C106.595 49.482 109.329 49.3626 111.805 50.2641L223.864 91.0501C226.34 91.9515 228.358 93.7999 229.471 96.1885C230.585 98.5772 230.705 101.31 229.803 103.787L195.815 197.169ZM191.592 121.606C196.749 123.483 202.451 120.824 204.329 115.666C206.206 110.509 203.547 104.806 198.389 102.929C193.232 101.052 187.529 103.711 185.652 108.869C183.775 114.026 186.434 119.728 191.592 121.606ZM190.735 153.019C188.858 158.177 183.155 160.836 177.998 158.959C172.84 157.082 170.181 151.379 172.058 146.222C173.936 141.064 179.638 138.405 184.795 140.282C189.953 142.16 192.612 147.862 190.735 153.019Z" fill="#DEF5EE"/>
<path fill-rule="evenodd" clip-rule="evenodd" d="M230.661 72.3736L197.137 60.1718L226.399 46.6046C227.586 46.0508 228.653 45.2686 229.538 44.3025C230.424 43.3364 231.11 42.2054 231.558 40.974C232.006 39.7427 232.207 38.4352 232.15 37.1261C232.093 35.817 231.779 34.5319 231.225 33.3443C230.671 32.1568 229.889 31.0899 228.923 30.2046C227.957 29.3194 226.826 28.6331 225.594 28.1849C223.108 27.2798 220.363 27.3996 217.965 28.518L176.026 48.152L156.519 6.15368C155.965 4.96609 155.183 3.89922 154.217 3.01395C153.251 2.12869 152.12 1.44238 150.889 0.994216C149.657 0.546048 148.35 0.344796 147.041 0.401954C145.731 0.459109 144.446 0.773555 143.259 1.32733C142.071 1.88111 141.004 2.66338 140.119 3.62948C139.234 4.59557 138.548 5.72657 138.099 6.9579C137.651 8.18923 137.45 9.49678 137.507 10.8059C137.564 12.115 137.879 13.4 138.433 14.5876L152.127 43.7894L118.603 31.5876C111.173 28.8833 102.973 29.2414 95.807 32.5829C88.6411 35.9245 83.096 41.9758 80.3917 49.4058L46.4034 142.788C43.6991 150.218 44.0571 158.418 47.3987 165.584C50.7402 172.75 56.7916 178.295 64.2215 180.999L176.28 221.785C183.71 224.489 191.91 224.131 199.076 220.79C206.242 217.448 211.787 211.397 214.491 203.967L248.48 110.585C251.184 103.155 250.826 94.9549 247.484 87.789C244.143 80.623 238.091 75.0779 230.661 72.3736ZM195.815 197.169C194.913 199.646 193.065 201.663 190.676 202.777C188.288 203.891 185.554 204.01 183.078 203.109L71.0192 162.323C68.5426 161.421 66.5254 159.573 65.4116 157.184C64.2977 154.796 64.1784 152.062 65.0798 149.586L99.0682 56.2034C99.9696 53.7268 101.818 51.7097 104.207 50.5958C106.595 49.482 109.329 49.3626 111.805 50.2641L223.864 91.0501C226.34 91.9515 228.358 93.7999 229.471 96.1885C230.585 98.5772 230.705 101.31 229.803 103.787L195.815 197.169ZM191.592 121.606C196.749 123.483 202.451 120.824 204.329 115.666C206.206 110.509 203.547 104.806 198.389 102.929C193.232 101.052 187.529 103.711 185.652 108.869C183.775 114.026 186.434 119.728 191.592 121.606ZM190.735 153.019C188.858 158.177 183.155 160.836 177.998 158.959C172.84 157.082 170.181 151.379 172.058 146.222C173.936 141.064 179.638 138.405 184.795 140.282C189.953 142.16 192.612 147.862 190.735 153.019Z" fill="url(#paint0_linear)" fill-opacity="0.2"/>
<rect y="86.813" width="145.242" height="73.1911" rx="10" fill="white"/>
<path d="M38.7207 134.714H46.3379V142.282H38.7207V158.981H28.8574V142.282H3.02734L2.73438 136.716L28.5645 87.8877H38.7207V134.714ZM12.5 134.714H28.8574V102.243L28.5645 102.194L27.5879 104.245L12.5 134.714ZM92.0176 131.491C92.0176 140.703 90.2435 147.767 86.6953 152.683C83.1797 157.565 78.3945 160.007 72.3398 160.007C66.2526 160.007 61.4186 157.549 57.8379 152.634C54.2897 147.718 52.5156 140.671 52.5156 131.491V115.427C52.5156 106.28 54.2897 99.2321 57.8379 94.2842C61.3861 89.3363 66.1875 86.8623 72.2422 86.8623C78.2969 86.8623 83.0983 89.3363 86.6465 94.2842C90.2272 99.2321 92.0176 106.28 92.0176 115.427V131.491ZM82.1543 114.011C82.1543 107.565 81.2917 102.699 79.5664 99.4111C77.8737 96.1234 75.4323 94.4795 72.2422 94.4795C69.0521 94.4795 66.6107 96.1396 64.918 99.46C63.2578 102.748 62.4277 107.598 62.4277 114.011V132.858C62.4277 139.304 63.2741 144.187 64.9668 147.507C66.6921 150.827 69.1497 152.487 72.3398 152.487C75.4974 152.487 77.9225 150.843 79.6152 147.556C81.3079 144.235 82.1543 139.336 82.1543 132.858V114.011ZM134.475 134.714H142.092V142.282H134.475V158.981H124.611V142.282H98.7812L98.4883 136.716L124.318 87.8877H134.475V134.714ZM108.254 134.714H124.611V102.243L124.318 102.194L123.342 104.245L108.254 134.714Z" fill="#12B580"/>
<defs>
<linearGradient id="paint0_linear" x1="250.278" y1="7.84223" x2="120.536" y2="158.939" gradientUnits="userSpaceOnUse">
<stop stop-color="#4A9BFD"/>
<stop offset="1" stop-color="#98DDBC"/>
</linearGradient>
</defs>
</svg>
