<svg width="25" height="36" viewBox="0 0 25 36" fill="none" xmlns="http://www.w3.org/2000/svg">
<path fill-rule="evenodd" clip-rule="evenodd" d="M12.4261 1.66355C13.4856 1.16444 14.8594 0.932226 16.1204 1.11136C17.3814 1.29048 18.7134 1.91994 19.336 3.33184C19.7053 4.16953 19.8364 5.48588 19.8887 6.94743C19.9429 8.46222 19.9138 10.3244 19.8706 12.3689C19.8704 12.3761 19.8697 12.3833 19.8685 12.3903C19.8349 12.8544 19.3968 13.1939 18.9001 13.1939C18.3832 13.1939 17.9297 12.8261 17.9297 12.3329C17.9297 12.3173 17.9302 12.3018 17.9311 12.2865C17.9361 11.8801 17.9419 11.4822 17.9476 11.0941C17.9701 9.55391 17.9903 8.16867 17.9492 7.0186C17.9224 6.27136 17.875 5.65913 17.809 5.17712C17.7428 4.69264 17.659 4.3489 17.5638 4.13307C17.3122 3.5626 16.7304 3.18242 15.8508 3.05747C14.9702 2.93238 13.9737 3.10196 13.2448 3.44532C9.46052 5.22808 8.04418 8.46866 8.04418 10.3171V10.319C8.02933 11.4206 8.03507 12.4213 8.03999 13.2779C8.04217 13.6566 8.04418 14.0072 8.04418 14.326C8.04418 14.957 8.02986 15.5134 8.01726 16.0029C8.00737 16.3873 7.99853 16.7306 7.99853 17.0363C7.99853 17.265 8.00004 17.4767 8.00141 17.6698C8.00383 18.0105 8.00584 18.2935 7.99845 18.5106C7.99661 18.5648 7.99726 18.6267 7.99812 18.6877L7.99834 18.7035C7.99912 18.757 7.9999 18.8109 7.99844 18.8514L7.99503 18.9471C7.99366 18.9861 7.99186 19.0429 7.98992 19.0976C7.97289 19.5765 7.52698 19.9302 7.02003 19.9302C6.51292 19.9302 6.06689 19.5763 6.05012 19.0972L6.05586 19.1685L6.04964 19.0729C6.04964 19.0723 6.04824 19.0645 6.04682 19.0566C6.04539 19.0487 6.04395 19.0406 6.04395 19.04L6.04395 18.7593C6.04395 18.725 6.04427 18.6919 6.04461 18.6582C6.04529 18.5894 6.04599 18.5184 6.04395 18.4301C6.04393 18.2826 6.04497 18.1219 6.04618 17.9359C6.04778 17.6882 6.04968 17.3959 6.04974 17.0312C6.06871 15.6343 6.06871 13.5722 6.06871 10.3171C6.06871 7.64581 8.01139 3.74331 12.4261 1.66355ZM6.3269 19.1065V19.0663C6.32694 19.0593 6.32714 19.0523 6.32749 19.0453V18.5101L6.3269 18.5106C6.32668 18.5011 6.32679 18.4645 6.3269 18.4275C6.32702 18.3896 6.32713 18.3513 6.3269 18.3413L6.32686 17.917C6.32684 17.6909 6.3268 17.417 6.3268 17.0414C6.3268 16.4962 6.32979 15.8395 6.33341 15.0445C6.33895 13.8257 6.34597 12.282 6.34597 10.3171C6.34597 7.76128 8.21911 3.95193 12.5443 1.91437C13.5562 1.43766 14.8754 1.21455 16.0814 1.38586C17.2874 1.55716 18.5122 2.15085 19.0823 3.4437C19.4272 4.22589 19.5591 5.49037 19.6116 6.95734C19.6513 8.06799 19.6461 9.36842 19.6232 10.7953H19.6238V12.4756V12.4762H19.6236C19.5394 12.708 19.2258 12.9166 18.9001 12.9166C18.5607 12.9166 18.2998 12.7212 18.2272 12.4756H18.2278V12.1945L18.2272 12.1945C18.2274 12.1938 18.2276 12.1931 18.2278 12.1924V11.7042C18.2274 11.7045 18.2271 11.7048 18.2267 11.7051C18.2233 10.9917 18.2299 10.3097 18.2362 9.66437C18.2458 8.68912 18.2545 7.79767 18.2262 7.00868C18.1993 6.25606 18.1513 5.6339 18.0837 5.13955C18.0165 4.64767 17.9286 4.27308 17.8175 4.0212C17.5141 3.33322 16.8267 2.91606 15.8898 2.78298C14.9541 2.65006 13.9031 2.82874 13.1267 3.1945C9.25154 5.02005 7.7674 8.35409 7.76692 10.3162C7.75192 11.4291 7.75805 12.4989 7.76298 13.3612C7.76506 13.7235 7.76692 14.0492 7.76692 14.326C7.76692 14.9599 7.75259 15.5159 7.73999 16.0047C7.7301 16.3882 7.72128 16.7303 7.72128 17.0363C7.72128 17.1731 7.7218 17.3029 7.7225 17.4256H7.72351V17.5828L7.72421 17.6809C7.72633 17.9773 7.7281 18.2252 7.72351 18.425V19.1065L7.72221 19.1065C7.72221 19.4112 7.42183 19.6529 7.02003 19.6529C6.6195 19.6529 6.32874 19.41 6.3269 19.1065Z" fill="#9CB6E7" stroke="#9CB6E7" stroke-width="0.75"/>
<path d="M18.1753 9.04395L7.80794 15.1648L7.77984 16.2372L18.1753 10.1478V9.04395Z" fill="#9CB6E7"/>
<path fill-rule="evenodd" clip-rule="evenodd" d="M19.5713 10.2679V9.16016L24.6775 12.183C24.7141 12.2047 24.7471 12.2308 24.776 12.2605C24.8668 12.349 24.9199 12.4716 24.9199 12.6018V24.8686C24.9199 25.0388 24.8291 25.1962 24.6817 25.2813L7.34456 35.293C7.22462 35.3623 7.08206 35.3752 6.9537 35.3319C6.92141 35.3216 6.88996 35.3079 6.85993 35.2906L1.15888 32.011C1.00959 31.9251 0.918243 31.7653 0.919945 31.5931L1.04124 19.3205C1.04251 19.192 1.09541 19.0714 1.18502 18.984C1.21463 18.9536 1.24854 18.9269 1.28617 18.905L6.23608 16.0149V17.082L2.46689 19.3194L3.42996 19.8895L7.20183 22.0914L14.9607 17.5728L23.4943 12.5903L19.5713 10.2679ZM6.71415 22.9415L2.94689 20.7113L1.98632 20.1506L1.87589 31.3237L6.6285 34.0578L6.6584 30.8121L6.71415 22.9415ZM7.6116 30.8199L7.58871 34.0513L23.9667 24.5934V13.4309L15.4412 18.396L7.68432 22.925L7.6116 30.8199Z" fill="#9CB6E7"/>
<path fill-rule="evenodd" clip-rule="evenodd" d="M2.03977 21.2334C2.0523 20.9375 2.37259 20.7589 2.63089 20.9038L6.1801 22.8945C6.3054 22.9648 6.38298 23.0973 6.38298 23.241V23.4328C6.38298 23.7362 6.05663 23.9275 5.79188 23.7794L2.23452 21.7892C2.10374 21.716 2.02528 21.5755 2.03162 21.4258L2.03977 21.2334ZM2.03976 22.5797C2.05229 22.2838 2.37258 22.1052 2.63088 22.2501L6.18009 24.2408C6.30539 24.3111 6.38297 24.4436 6.38297 24.5872V24.7791C6.38297 25.0825 6.05662 25.2738 5.79187 25.1257L2.23451 23.1355C2.10373 23.0623 2.02526 22.9218 2.03161 22.772L2.03976 22.5797ZM2.03976 23.926C2.05229 23.6301 2.37258 23.4515 2.63088 23.5964L6.18009 25.5871C6.30539 25.6574 6.38297 25.7899 6.38297 25.9335V26.1254C6.38297 26.4288 6.05662 26.6201 5.79187 26.472L2.23451 24.4818C2.10373 24.4086 2.02526 24.268 2.03161 24.1183L2.03976 23.926ZM2.03976 25.2723C2.05229 24.9764 2.37258 24.7978 2.63088 24.9427L6.18009 26.9334C6.30539 27.0037 6.38297 27.1361 6.38297 27.2798V27.4717C6.38297 27.775 6.05662 27.9664 5.79187 27.8183L2.23451 25.828C2.10373 25.7549 2.02526 25.6143 2.03161 25.4646L2.03976 25.2723ZM2.03976 26.6186C2.05229 26.3227 2.37258 26.1441 2.63088 26.289L6.18009 28.2797C6.30539 28.35 6.38297 28.4824 6.38297 28.6261V28.8179C6.38297 29.1213 6.05662 29.3127 5.79187 29.1646L2.23451 27.1743C2.10373 27.1012 2.02526 26.9606 2.03161 26.8109L2.03976 26.6186ZM2.03976 27.9648C2.05229 27.6689 2.37258 27.4904 2.63088 27.6352L6.18009 29.626C6.30539 29.6962 6.38297 29.8287 6.38297 29.9724V30.1642C6.38297 30.4676 6.05662 30.659 5.79187 30.5108L2.23451 28.5206C2.10373 28.4474 2.02526 28.3069 2.03161 28.1572L2.03976 27.9648ZM2.05966 29.3111C2.07219 29.0152 2.39248 28.8366 2.65078 28.9815L6.19999 30.9723C6.32529 31.0425 6.40287 31.175 6.40287 31.3187V31.5105C6.40287 31.8139 6.07652 32.0053 5.81177 31.8571L2.25441 29.8669C2.12363 29.7937 2.04516 29.6532 2.05151 29.5035L2.05966 29.3111ZM2.05966 30.6574C2.07219 30.3615 2.39248 30.1829 2.65078 30.3278L6.19999 32.3185C6.32529 32.3888 6.40287 32.5213 6.40287 32.6649V32.8568C6.40287 33.1602 6.07652 33.3515 5.81177 33.2034L2.25441 31.2132C2.12363 31.14 2.04516 30.9995 2.05151 30.8497L2.05966 30.6574Z" fill="#9CB6E7"/>
<path d="M20.0016 23.7688L20.7477 21.9801L21.5327 22.9668L22.5038 21.632L21.5512 20.8607L22.9474 19.6114L22.526 18.4599L21.2814 19.7775L21.3728 18.0176L20.0871 18.7599L20.2097 20.4386L18.8355 20.5798L18.4662 22.0774L19.8296 21.7259L18.8956 23.5745L20.0016 23.7688Z" fill="#9CB6E7"/>
<path d="M14.0252 23.3137L13.656 24.8114L15.0194 24.4599L14.0853 26.3085L15.1914 26.5028L15.9374 24.7141L16.7224 25.7008L17.6935 24.366L16.741 23.5947L18.1372 22.3454L17.7158 21.1939L16.4711 22.5115L16.5625 20.7516L15.2769 21.4939L15.3994 23.1726L14.0252 23.3137Z" fill="#9CB6E7"/>
<path d="M9.21495 26.1619L8.8457 27.6595L10.2091 27.308L9.27503 29.1566L10.3811 29.3509L11.1271 27.5623L11.9121 28.5489L12.8832 27.2141L11.9307 26.4428L13.3269 25.1936L12.9055 24.042L11.6609 25.3596L11.7523 23.5997L10.4666 24.342L10.5891 26.0207L9.21495 26.1619Z" fill="#9CB6E7"/>
</svg>
