<svg width="434" height="336" viewBox="0 0 434 336" fill="none" xmlns="http://www.w3.org/2000/svg">
<g opacity="0.12" filter="url(#filter0_df)">
<rect width="106.741" height="99.6664" rx="2" transform="matrix(0.950924 0.309426 -0.409707 0.912217 73.0405 15.5615)" fill="#27E88C"/>
<rect width="106.437" height="96.7361" rx="2" transform="matrix(0.950846 0.309664 -0.409416 0.912348 30.1055 110.989)" fill="#00C9C9"/>
<rect width="106.437" height="96.7361" rx="2" transform="matrix(0.950846 0.309664 -0.409416 0.912348 30.1055 110.989)" fill="url(#paint0_linear)" style="mix-blend-mode:overlay"/>
<rect width="115.1" height="80.7754" rx="2" transform="matrix(0.950846 0.309665 -0.409415 0.912348 131.148 158.45)" fill="#34E5C1"/>
<rect width="115.363" height="116.056" rx="2" transform="matrix(0.950846 0.309664 -0.409416 0.912348 180.807 47.7725)" fill="#0059FF"/>
<rect width="115.363" height="116.056" rx="2" transform="matrix(0.950846 0.309664 -0.409416 0.912348 180.807 47.7725)" fill="url(#paint1_linear)" style="mix-blend-mode:overlay"/>
</g>
<defs>
<filter id="filter0_df" x="-152.85" y="-127.922" width="586.7" height="539.193" filterUnits="userSpaceOnUse" color-interpolation-filters="sRGB">
<feFlood flood-opacity="0" result="BackgroundImageFix"/>
<feColorMatrix in="SourceAlpha" type="matrix" values="0 0 0 0 0 0 0 0 0 0 0 0 0 0 0 0 0 0 127 0"/>
<feOffset dx="14" dy="10"/>
<feColorMatrix type="matrix" values="0 0 0 0 0.103056 0 0 0 0 0.233883 0 0 0 0 0.441667 0 0 0 1 0"/>
<feBlend mode="normal" in2="BackgroundImageFix" result="effect1_dropShadow"/>
<feBlend mode="normal" in="SourceGraphic" in2="effect1_dropShadow" result="shape"/>
<feGaussianBlur stdDeviation="72" result="effect2_foregroundBlur"/>
</filter>
<linearGradient id="paint0_linear" x1="31.1039" y1="133.437" x2="97.271" y2="-1.42963" gradientUnits="userSpaceOnUse">
<stop stop-color="white"/>
<stop offset="1" stop-color="white" stop-opacity="0"/>
</linearGradient>
<linearGradient id="paint1_linear" x1="77.9467" y1="-17.2869" x2="4.27773" y2="116.665" gradientUnits="userSpaceOnUse">
<stop stop-color="white"/>
<stop offset="1" stop-color="white" stop-opacity="0"/>
</linearGradient>
</defs>
</svg>
