<svg width="1440" height="214" viewBox="0 0 1440 214" fill="none" xmlns="http://www.w3.org/2000/svg">
<mask id="mask0" mask-type="alpha" maskUnits="userSpaceOnUse" x="0" y="0" width="1440" height="214">
<rect width="1440" height="214" fill="#496E7F"/>
</mask>
<g mask="url(#mask0)">
<rect width="1440" height="214" fill="#3B5D6D"/>
<g opacity="0.5" filter="url(#filter0_df)">
<rect width="387.498" height="370.821" rx="2" transform="matrix(0.944096 0.32967 -0.386076 0.922467 363.926 -130.634)" fill="#009292"/>
<rect width="387.498" height="370.821" rx="2" transform="matrix(0.944096 0.32967 -0.386076 0.922467 363.926 -130.634)" fill="url(#paint0_linear)" style="mix-blend-mode:overlay"/>
<rect width="419.039" height="309.638" rx="2" transform="matrix(0.944096 0.32967 -0.386076 0.922467 729.176 53.3147)" fill="#34E5C1"/>
<rect width="419.996" height="444.879" rx="2" transform="matrix(0.944096 0.32967 -0.386076 0.922467 908.682 -375.653)" fill="#26509E"/>
<rect width="419.996" height="444.879" rx="2" transform="matrix(0.944096 0.32967 -0.386076 0.922467 908.682 -375.653)" fill="url(#paint1_linear)" style="mix-blend-mode:overlay"/>
</g>
</g>
<defs>
<filter id="filter0_df" x="77.3809" y="-643.951" width="1371.2" height="1264.5" filterUnits="userSpaceOnUse" color-interpolation-filters="sRGB">
<feFlood flood-opacity="0" result="BackgroundImageFix"/>
<feColorMatrix in="SourceAlpha" type="matrix" values="0 0 0 0 0 0 0 0 0 0 0 0 0 0 0 0 0 0 127 0" result="hardAlpha"/>
<feOffset dx="14" dy="82"/>
<feColorMatrix type="matrix" values="0 0 0 0 0.103056 0 0 0 0 0.233883 0 0 0 0 0.441667 0 0 0 1 0"/>
<feBlend mode="normal" in2="BackgroundImageFix" result="effect1_dropShadow"/>
<feBlend mode="normal" in="SourceGraphic" in2="effect1_dropShadow" result="shape"/>
<feGaussianBlur stdDeviation="72" result="effect2_foregroundBlur"/>
</filter>
<linearGradient id="paint0_linear" x1="113.238" y1="511.506" x2="374.789" y2="5.1923" gradientUnits="userSpaceOnUse">
<stop stop-color="white"/>
<stop offset="1" stop-color="white" stop-opacity="0"/>
</linearGradient>
<linearGradient id="paint1_linear" x1="283.776" y1="-66.2663" x2="-6.24923" y2="434.576" gradientUnits="userSpaceOnUse">
<stop stop-color="white"/>
<stop offset="1" stop-color="white" stop-opacity="0"/>
</linearGradient>
</defs>
</svg>
