<svg xmlns="http://www.w3.org/2000/svg" fill="none" viewBox="0 0 200 200"><mask id="a" width="200" height="200" x="0" y="0" maskUnits="userSpaceOnUse"><rect width="200" height="200" fill="#C4C4C4" rx="50"/></mask><g mask="url(#a)"><path fill="#3EC886" d="M26.83-63.75L174.21-7.4l-45.29 118.46-147.38-56.34z"/><path fill="#077A7A" d="M-18.46 54.71L100 100 54.71 218.46l-118.45-45.29z"/><path fill="url(#paint0_linear)" d="M-18.46 54.71h126.82v126.82H-18.46z" style="mix-blend-mode:overlay" transform="rotate(20.92 -18.46 54.71)"/><path fill="#34E5C1" d="M110.98 71.27l118.46 45.29-56.27 147.19-118.46-45.29z"/><path fill="#214485" d="M145.29-18.46l118.46 45.29-51.48 134.66L93.8 116.21z"/><path fill="url(#paint1_linear)" d="M145.29-18.46h126.82v144.17H145.29z" style="mix-blend-mode:overlay" transform="rotate(20.92 145.29 -18.46)"/><path fill="#fff" d="M120.23 138.57a1 1 0 001-1v-24.42a1 1 0 00-1-1h-23.2c-2.77 0-4.7-.84-5.79-2.5-1.03-1.74-1.54-4.8-1.54-9.17 0-4.3.54-7.36 1.64-9.16 1.15-1.8 2.99-2.7 5.5-2.7h23.97a1 1 0 001-1v-25.2a1 1 0 00-1-1H77.64c-5.46 0-9.64 1.78-12.53 5.31-2.9 3.47-4.34 7.84-4.34 13.12v41.13c0 1.99.84 5.15 1.54 7.08.77 1.93 1.93 3.7 3.47 5.3a18.4 18.4 0 006.08 3.76 23.3 23.3 0 008.58 1.45h39.79z"/><path fill="#214485" fill-rule="evenodd" d="M150.16 166.5a1 1 0 01-1 1H80.44a52.1 52.1 0 01-19.2-3.47 47.28 47.28 0 01-15.49-9.8l-.43-.4-.4-.43a45.37 45.37 0 01-9.47-14.6l-.15-.39-.15-.39a45.9 45.9 0 01-2.83-15.84c0-1-.02-2.78-.09-5.5v-.67c0-2.65-.03-6.63-.1-12.03-.06-3.89-.13-8.3-.19-13.25-.06-5.01-.1-8.68-.1-10.88 0-10.82 3.1-22.05 10.96-31.54 9.48-11.5 22.63-15.81 34.84-15.81h71.52a1 1 0 011 1v133zM65.1 66.73c-2.9 3.47-4.34 7.84-4.34 13.12v41.33c0 2 .84 4.95 1.54 6.88.77 1.93 1.93 3.7 3.47 5.3a18.4 18.4 0 006.08 3.76 23.3 23.3 0 008.58 1.45h39.79a1 1 0 001-1v-24.42a1 1 0 00-1-1h-23.4c-2.66-.04-4.52-.88-5.59-2.5-.56-.96-.97-2.3-1.23-4.06-.1-.72-.18-1.5-.23-2.36l-.01-.14a45.68 45.68 0 01.11-6.52c.25-2.3.73-4.05 1.46-5.25.23-.36.48-.68.77-.96 1.14-1.16 2.71-1.74 4.72-1.74h23.98a1 1 0 001-1v-25.2a1 1 0 00-1-1H77.64c-5.46 0-9.64 1.78-12.53 5.31z" clip-rule="evenodd"/></g><mask id="b" width="200" height="200" x="0" y="0" maskUnits="userSpaceOnUse"><rect width="200" height="200" fill="#C4C4C4" rx="50"/></mask><g mask="url(#b)"><path fill="#214485" d="M212.63 99.14a1 1 0 010 1.72l-75.14 44.73a1 1 0 01-1.51-.86V55.27a1 1 0 011.5-.86l75.16 44.73z"/><path fill="#3F85FD" d="M174.57 99.48a1 1 0 010 1.71l-31.91 19a1 1 0 01-1.52-.86v-38a1 1 0 011.52-.85l31.9 19z"/><path fill="url(#paint2_linear)" d="M174.57 99.48a1 1 0 010 1.71l-31.91 19a1 1 0 01-1.52-.86v-38a1 1 0 011.52-.85l31.9 19z" style="mix-blend-mode:overlay"/></g><defs><linearGradient id="paint0_linear" x1="18.6" x2="110.3" y1="229.65" y2="59.78" gradientUnits="userSpaceOnUse"><stop stop-color="#fff"/><stop offset="1" stop-color="#fff" stop-opacity="0"/></linearGradient><linearGradient id="paint1_linear" x1="230.98" x2="133.81" y1="-39.94" y2="116.41" gradientUnits="userSpaceOnUse"><stop stop-color="#fff"/><stop offset="1" stop-color="#fff" stop-opacity="0"/></linearGradient><linearGradient id="paint2_linear" x1="141.19" x2="141.19" y1="80.58" y2="120.75" gradientUnits="userSpaceOnUse"><stop stop-color="#fff" stop-opacity=".25"/><stop offset="1" stop-color="#fff" stop-opacity="0"/></linearGradient></defs></svg>