<svg xmlns="http://www.w3.org/2000/svg" fill="none" viewBox="0 0 273 74"><g filter="url(#filter0_d)"><mask id="a" width="58" height="58" x="8" y="6" maskUnits="userSpaceOnUse"><rect width="58" height="58" x="8" y="6" fill="#C4C4C4" rx="15"/></mask><mask id="b" width="58" height="58" x="8" y="6" maskUnits="userSpaceOnUse"><rect width="58" height="58" x="8" y="6" fill="#C4C4C4" rx="15"/></mask><g mask="url(#b)"><path fill="#3EC886" d="M15-12.79L58.51 3.85 45.38 38.21 1.86 21.57z"/><path fill="#077A7A" d="M2.65 21.87L37 35 23.6 70.06l-34.35-13.13z"/><path fill="url(#paint0_linear)" d="M2.65 21.87h36.78V59.4H2.65z" style="mix-blend-mode:overlay" transform="rotate(20.92 2.65 21.87)"/><path fill="#34E5C1" d="M40.19 26.67l35.22 13.47L59.1 82.82 23.87 69.36z"/><path fill="#214485" d="M50.5-.3l34.36 13.13-15.3 40L35.21 39.7z"/><path fill="url(#paint1_linear)" d="M50.5-.31h36.78v42.83H50.5z" style="mix-blend-mode:overlay" transform="rotate(20.92 50.5 -.3)"/><path fill="#fff" d="M42.87 46.19c.16 0 .29-.13.29-.3v-7.08a.29.29 0 00-.3-.29h-6.72c-.8 0-1.36-.24-1.68-.72-.3-.5-.45-1.4-.45-2.66 0-1.25.16-2.13.48-2.66.33-.52.86-.78 1.6-.78h6.95c.16 0 .28-.13.28-.29v-7.3a.29.29 0 00-.28-.3H30.52c-1.59 0-2.8.52-3.64 1.54a5.74 5.74 0 00-1.26 3.8v11.93c0 .58.25 1.5.45 2.06.22.56.56 1.07 1 1.54.47.44 1.06.8 1.77 1.09.7.28 1.54.42 2.49.42h11.54z"/><path fill="#214485" fill-rule="evenodd" d="M51.55 54.28c0 .17-.13.3-.3.3H31.34c-1.75 0-3.67-.26-5.57-1.01a13.7 13.7 0 01-4.5-2.84l-.12-.12-.11-.12a13.16 13.16 0 01-2.75-4.24l-.04-.11-.05-.11c-.53-1.46-.82-3-.82-4.6l-.02-1.6v-.19a322.9 322.9 0 00-.09-7.33l-.03-3.15c0-3.14.9-6.4 3.18-9.15a12.8 12.8 0 0110.1-4.59h20.75c.16 0 .29.13.29.3v38.56zM26.88 25.35a5.74 5.74 0 00-1.26 3.8v12c0 .57.25 1.43.45 1.99.22.56.56 1.07 1 1.54.47.44 1.06.8 1.77 1.09.7.28 1.54.42 2.49.42h11.54c.16 0 .29-.13.29-.3v-7.08a.29.29 0 00-.3-.29H36.09c-.77 0-1.31-.25-1.62-.72a3.27 3.27 0 01-.36-1.18 8.27 8.27 0 01-.09-1.48c0-.42.02-.8.06-1.13.07-.67.2-1.18.42-1.53.06-.1.14-.2.22-.28.33-.33.79-.5 1.37-.5h6.95c.16 0 .3-.13.3-.29v-7.3a.29.29 0 00-.3-.3H30.52c-1.59 0-2.8.52-3.64 1.54z" clip-rule="evenodd"/></g><mask id="c" width="58" height="58" x="8" y="6" maskUnits="userSpaceOnUse"><path fill="#C4C4C4" d="M8 20.5C8 12.5 14.5 6 22.5 6h29c8 0 14.5 6.5 14.5 14.5v29c0 8-6.5 14.5-14.5 14.5h-29C14.5 64 8 57.5 8 49.5v-29z"/></mask><g mask="url(#c)"><path fill="#214485" d="M69.66 34.75c.2.11.2.39 0 .5L47.87 48.22a.29.29 0 01-.44-.25V22.03c0-.23.25-.37.44-.25l21.8 12.97z"/><path fill="#3F85FD" d="M58.62 34.85c.2.11.2.38 0 .5l-9.25 5.5a.29.29 0 01-.44-.24V29.59c0-.23.25-.37.44-.25l9.25 5.5z"/><path fill="url(#paint2_linear)" d="M58.62 34.85c.2.11.2.38 0 .5l-9.25 5.5a.29.29 0 01-.44-.24V29.59c0-.23.25-.37.44-.25l9.25 5.5z" style="mix-blend-mode:overlay"/></g></g><path fill="#274B8F" d="M79.45 28.48c0-1.65.56-2.94 1.69-3.86 1.14-.93 2.86-1.39 5.14-1.39 1.5 0 2.84.16 4.03.5v3.63a13.91 13.91 0 00-3.8-.57c-1.18 0-2 .18-2.44.53-.42.33-.63.83-.63 1.49v11.78c0 1.34.96 2.01 2.88 2.01 1.6 0 2.97-.18 4.09-.53v3.6c-1.19.33-2.59.5-4.2.5-4.5 0-6.76-1.74-6.76-5.22V28.48zm22.25.43c0-1.5-.82-2.25-2.47-2.25-1.63 0-2.44.75-2.44 2.25v11.58c0 1.5.81 2.24 2.44 2.24 1.65 0 2.47-.74 2.47-2.24V28.9zm-8.87-.2c0-1.72.53-3.08 1.61-4.1 1.08-1.03 2.68-1.54 4.79-1.54s3.7.51 4.78 1.55a5.29 5.29 0 011.65 4.09v11.98a5.4 5.4 0 01-1.65 4.12c-1.08 1.01-2.67 1.52-4.78 1.52-2.11 0-3.7-.5-4.79-1.52a5.45 5.45 0 01-1.61-4.12V28.7zm33.44-5.32V46h-3.82v-9.37c0-2.22.15-4.46.46-6.7l-3.7 10.23h-3.3l-3.73-10.23c.33 2.05.5 4.28.5 6.7V46h-3.8V23.4h4.23l4.45 12.54 4.46-12.54h4.25zm16.07 5.15v2.05c0 2.09-.77 3.42-2.31 4 1.67.5 2.5 1.85 2.5 4.05v2.21c0 3.43-1.82 5.15-5.47 5.15h-7.23V23.4h7.03c3.65 0 5.48 1.71 5.48 5.14zm-6.08-1.78h-2.47v6.1h2.47c1.46 0 2.18-.68 2.18-2.04v-2.05c0-1.34-.72-2-2.18-2zm2.38 13.86v-2.21c0-1.36-.72-2.05-2.18-2.05h-2.67v6.27h2.67c1.45 0 2.18-.67 2.18-2zm15.69-11.71c0-1.5-.83-2.25-2.48-2.25-1.62 0-2.44.75-2.44 2.25v11.58c0 1.5.82 2.24 2.44 2.24 1.65 0 2.48-.74 2.48-2.24V28.9zm-8.88-.2c0-1.72.54-3.08 1.62-4.1 1.08-1.03 2.67-1.54 4.78-1.54 2.12 0 3.71.51 4.79 1.55a5.29 5.29 0 011.65 4.09v11.98a5.4 5.4 0 01-1.65 4.12c-1.08 1.01-2.67 1.52-4.79 1.52-2.1 0-3.7-.5-4.78-1.52a5.45 5.45 0 01-1.62-4.12V28.7zm26.14.23c0-2.03-1.04-3.04-3.13-3.04h-2.9v10.4h2.9c2.09 0 3.13-1 3.13-3v-4.36zm-8.38-5.12h5.38c1.74 0 3.06.45 3.96 1.36.92.9 1.38 2.1 1.38 3.63v4.58c0 1.54-.45 2.77-1.35 3.67-.9.88-2.23 1.32-4 1.32h-3.03V46h-2.34V23.82zm14.5 0h2.34v20.13h6.74V46h-9.08V23.82zM198.5 46l-1.35-6.2h-5.94l-1.36 6.2h-2.34l5.02-22.18h3.3L200.83 46h-2.34zm-6.87-8.25h5.05l-2.54-11.65-2.5 11.65zm17.7 8.25H207v-7.5l-5.45-14.68h2.4l2.25 6.04c.1.25.76 2.21 2.02 5.91.81-2.53 2.2-6.51 4.19-11.95h2.37l-5.44 14.69V46zm7.87-22.18h9.6v2.08h-7.26v7.89h6.34v2.08h-6.34v8.05h7.26V46h-9.6V23.82zM235.9 37.1h-3.26V46h-2.34V23.82h5.37c1.76 0 3.1.45 4 1.36.9.88 1.35 2.09 1.35 3.63v3.26c0 2.38-.95 3.92-2.84 4.62l3.53 9.31h-2.57l-3.24-8.91zm-3.26-2.05h2.94c2.06 0 3.1-1 3.1-3v-3.13c0-2-1.04-3-3.1-3h-2.94v9.13z"/><defs><linearGradient id="paint0_linear" x1="13.39" x2="40.83" y1="73.64" y2="23.83" gradientUnits="userSpaceOnUse"><stop stop-color="#fff"/><stop offset="1" stop-color="#fff" stop-opacity="0"/></linearGradient><linearGradient id="paint1_linear" x1="75.35" x2="46.18" y1="-6.68" y2="39.13" gradientUnits="userSpaceOnUse"><stop stop-color="#fff"/><stop offset="1" stop-color="#fff" stop-opacity="0"/></linearGradient><linearGradient id="paint2_linear" x1="51.4" x2="51.4" y1="30.32" y2="40.04" gradientUnits="userSpaceOnUse"><stop stop-color="#fff" stop-opacity=".25"/><stop offset="1" stop-color="#fff" stop-opacity="0"/></linearGradient><filter id="filter0_d" width="74" height="74" x="0" y="0" color-interpolation-filters="sRGB" filterUnits="userSpaceOnUse"><feFlood flood-opacity="0" result="BackgroundImageFix"/><feColorMatrix in="SourceAlpha" values="0 0 0 0 0 0 0 0 0 0 0 0 0 0 0 0 0 0 127 0"/><feOffset dy="2"/><feGaussianBlur stdDeviation="4"/><feColorMatrix values="0 0 0 0 0 0 0 0 0 0 0 0 0 0 0 0 0 0 0.2 0"/><feBlend in2="BackgroundImageFix" result="effect1_dropShadow"/><feBlend in="SourceGraphic" in2="effect1_dropShadow" result="shape"/></filter></defs></svg>