<svg width="657" height="200" viewBox="0 0 657 200" fill="none" xmlns="http://www.w3.org/2000/svg">
<g clip-path="url(#clip0)">
<path d="M240 83.776C240 79.576 241.428 76.3 244.284 73.948C247.196 71.596 251.564 70.42 257.388 70.42C261.196 70.42 264.612 70.84 267.636 71.68V80.92C264.276 79.968 261.056 79.492 257.976 79.492C254.952 79.492 252.88 79.94 251.76 80.836C250.696 81.676 250.164 82.936 250.164 84.616V114.604C250.164 118.02 252.6 119.728 257.472 119.728C261.56 119.728 265.032 119.28 267.888 118.384V127.54C264.864 128.38 261.308 128.8 257.22 128.8C245.74 128.8 240 124.376 240 115.528V83.776Z" fill="#214485"/>
<path d="M296.639 84.868C296.639 81.06 294.539 79.156 290.339 79.156C286.195 79.156 284.123 81.06 284.123 84.868V114.352C284.123 118.16 286.195 120.064 290.339 120.064C294.539 120.064 296.639 118.16 296.639 114.352V84.868ZM274.043 84.364C274.043 79.996 275.415 76.524 278.159 73.948C280.903 71.316 284.963 70 290.339 70C295.715 70 299.775 71.316 302.519 73.948C305.319 76.524 306.719 79.996 306.719 84.364V114.856C306.719 119.224 305.319 122.724 302.519 125.356C299.775 127.932 295.715 129.22 290.339 129.22C284.963 129.22 280.903 127.932 278.159 125.356C275.415 122.724 274.043 119.224 274.043 114.856V84.364Z" fill="#214485"/>
<path d="M359.182 70.84V128.38H349.438V104.524C349.438 98.868 349.83 93.184 350.614 87.472L341.206 113.512H332.806L323.314 87.472C324.154 92.68 324.574 98.364 324.574 104.524V128.38H314.914V70.84H325.666L337.006 102.76L348.346 70.84H359.182Z" fill="#214485"/>
<path d="M400.071 83.944V89.152C400.071 94.472 398.111 97.86 394.191 99.316C398.447 100.604 400.575 104.048 400.575 109.648V115.276C400.575 124.012 395.927 128.38 386.631 128.38H368.235V70.84H386.127C395.423 70.84 400.071 75.208 400.071 83.944ZM384.615 79.408H378.315V94.948H384.615C388.311 94.948 390.159 93.212 390.159 89.74V84.532C390.159 81.116 388.311 79.408 384.615 79.408ZM390.663 114.688V109.06C390.663 105.588 388.815 103.852 385.119 103.852H378.315V119.812H385.119C388.815 119.812 390.663 118.104 390.663 114.688Z" fill="#214485"/>
<path d="M430.596 84.868C430.596 81.06 428.496 79.156 424.296 79.156C420.152 79.156 418.08 81.06 418.08 84.868V114.352C418.08 118.16 420.152 120.064 424.296 120.064C428.496 120.064 430.596 118.16 430.596 114.352V84.868ZM408 84.364C408 79.996 409.372 76.524 412.116 73.948C414.86 71.316 418.92 70 424.296 70C429.672 70 433.732 71.316 436.476 73.948C439.276 76.524 440.676 79.996 440.676 84.364V114.856C440.676 119.224 439.276 122.724 436.476 125.356C433.732 127.932 429.672 129.22 424.296 129.22C418.92 129.22 414.86 127.932 412.116 125.356C409.372 122.724 408 119.224 408 114.856V84.364Z" fill="#214485"/>
<path d="M474.535 84.952C474.535 79.8 471.875 77.224 466.555 77.224H459.163V103.684H466.555C471.875 103.684 474.535 101.136 474.535 96.04V84.952ZM453.199 71.932H466.891C471.315 71.932 474.675 73.08 476.971 75.376C479.323 77.672 480.499 80.752 480.499 84.616V96.292C480.499 100.212 479.351 103.32 477.055 105.616C474.759 107.856 471.371 108.976 466.891 108.976H459.163V128.38H453.199V71.932Z" fill="#214485"/>
<path d="M490.113 71.932H496.077V123.172H513.213V128.38H490.113V71.932Z" fill="#214485"/>
<path d="M543.002 128.38L539.558 112.588H524.438L520.994 128.38H515.03L527.798 71.932H536.198L548.966 128.38H543.002ZM525.53 107.38H538.382L531.914 77.728L525.53 107.38Z" fill="#214485"/>
<path d="M570.594 128.38H564.63V109.312L550.77 71.932H556.902L562.614 87.304C562.838 87.92 564.546 92.932 567.738 102.34C569.81 95.9 573.366 85.764 578.406 71.932H584.454L570.594 109.312V128.38Z" fill="#214485"/>
<path d="M590.602 71.932H615.046V77.224H596.566V97.3H612.694V102.592H596.566V123.088H615.046V128.38H590.602V71.932Z" fill="#214485"/>
<path d="M638.268 105.7H629.952V128.38H623.988V71.932H637.68C642.16 71.932 645.548 73.08 647.844 75.376C650.14 77.616 651.288 80.696 651.288 84.616V92.932C651.288 98.98 648.88 102.9 644.064 104.692L653.052 128.38H646.5L638.268 105.7ZM629.952 100.492H637.428C642.692 100.492 645.324 97.944 645.324 92.848V84.868C645.324 79.772 642.692 77.224 637.428 77.224H629.952V100.492Z" fill="#214485"/>
<path d="M169.82 4.08225L128.92 111.06L0 61.7768V50C0 22.3858 22.3858 0 50 0H150C157.041 0 163.743 1.45557 169.82 4.08225Z" fill="#3EC886"/>
<path d="M61.7677 200L100 100L0 61.7677V150C0 177.614 22.3858 200 50 200H61.7677Z" fill="#077A7A"/>
<path style="mix-blend-mode:overlay" d="M61.771 200L100 99.9929L0 61.7666V150C0 177.614 22.3858 200 50 200H61.771Z" fill="url(#paint0_linear)"/>
<path d="M200 105.304L110.98 71.27L61.7672 200H150C177.614 200 200 177.614 200 150V105.304Z" fill="#34E5C1"/>
<path d="M199.564 156.634L93.8 116.21L138.232 0H150C177.614 0 200 22.3858 200 50V150C200 152.249 199.852 154.463 199.564 156.634Z" fill="#214485"/>
<path style="mix-blend-mode:overlay" d="M199.564 156.631L93.812 116.206L138.233 0H150C177.614 0 200 22.3858 200 50V150C200 152.248 199.852 154.462 199.564 156.631Z" fill="url(#paint1_linear)"/>
<path fill-rule="evenodd" clip-rule="evenodd" d="M149.867 167.207C150.055 167.02 150.16 166.765 150.16 166.5V138.048L200 108.378V91.6175L150.16 61.9562V33.5C150.16 33.2348 150.055 32.9804 149.867 32.7929C149.68 32.6054 149.425 32.5 149.16 32.5H77.64C65.43 32.5 52.28 36.81 42.8 48.31C34.94 57.8 31.84 69.03 31.84 79.85C31.84 82.05 31.88 85.72 31.94 90.73C31.9942 95.2041 32.0566 99.2371 32.1124 102.844L32.13 103.98C32.2 109.38 32.23 113.36 32.23 116.01V116.68C32.3 119.4 32.32 121.18 32.32 122.18C32.3232 127.585 33.2813 132.948 35.15 138.02L35.45 138.8C37.635 144.232 40.8508 149.19 44.92 153.4L45.32 153.83L45.75 154.23C50.2246 158.476 55.4868 161.805 61.24 164.03C67.3643 166.385 73.8786 167.563 80.44 167.5H149.16C149.425 167.5 149.68 167.395 149.867 167.207ZM60.76 79.85C60.76 74.57 62.2 70.2 65.1 66.73H65.11C68 63.2 72.18 61.42 77.64 61.42H120.8C121.065 61.42 121.32 61.5254 121.507 61.7129C121.695 61.9004 121.8 62.1548 121.8 62.42V87.62C121.8 87.8852 121.695 88.1396 121.507 88.3271C121.32 88.5146 121.065 88.62 120.8 88.62H96.82C94.81 88.62 93.24 89.2 92.1 90.36C91.81 90.64 91.56 90.96 91.33 91.32C90.6 92.52 90.12 94.27 89.87 96.57C89.678 98.7379 89.6413 100.917 89.76 103.09L89.77 103.23C89.82 104.09 89.9 104.87 90 105.59C90.26 107.35 90.67 108.69 91.23 109.65C92.3 111.27 94.16 112.11 96.82 112.15H120.22C120.485 112.15 120.74 112.255 120.927 112.443C121.115 112.63 121.22 112.885 121.22 113.15V137.57C121.22 137.835 121.115 138.09 120.927 138.277C120.74 138.465 120.485 138.57 120.22 138.57H80.43C77.5043 138.63 74.5935 138.138 71.85 137.12C69.597 136.276 67.5313 134.999 65.77 133.36C64.23 131.76 63.07 129.99 62.3 128.06C61.6 126.13 60.76 123.18 60.76 121.18V79.85Z" fill="#214485"/>
<path d="M174.57 99.4799C174.717 99.5691 174.838 99.6946 174.923 99.8443C175.007 99.9941 175.051 100.163 175.051 100.335C175.051 100.507 175.007 100.676 174.923 100.826C174.838 100.975 174.717 101.101 174.57 101.19L142.66 120.19C142.508 120.283 142.334 120.333 142.156 120.336C141.978 120.339 141.803 120.294 141.648 120.206C141.493 120.118 141.364 119.991 141.275 119.837C141.185 119.683 141.139 119.508 141.14 119.33V81.3299C141.141 81.1528 141.189 80.979 141.279 80.8264C141.368 80.6738 141.497 80.5478 141.652 80.4613C141.807 80.3748 141.981 80.331 142.159 80.3343C142.336 80.3376 142.509 80.3878 142.66 80.4799L174.56 99.4799H174.57Z" fill="#3F85FD"/>
<path style="mix-blend-mode:overlay" d="M174.57 99.4799C174.717 99.5691 174.838 99.6946 174.923 99.8443C175.007 99.9941 175.051 100.163 175.051 100.335C175.051 100.507 175.007 100.676 174.923 100.826C174.838 100.975 174.717 101.101 174.57 101.19L142.66 120.19C142.508 120.283 142.334 120.333 142.156 120.336C141.978 120.339 141.803 120.294 141.648 120.206C141.493 120.118 141.364 119.991 141.275 119.837C141.185 119.683 141.139 119.508 141.14 119.33V81.3299C141.141 81.1528 141.189 80.979 141.279 80.8264C141.368 80.6738 141.497 80.5478 141.652 80.4613C141.807 80.3748 141.981 80.331 142.159 80.3343C142.336 80.3376 142.509 80.3878 142.66 80.4799L174.56 99.4799H174.57Z" fill="url(#paint2_linear)"/>
<path d="M120.23 138.57C120.495 138.57 120.75 138.465 120.937 138.277C121.125 138.09 121.23 137.835 121.23 137.57V113.15C121.23 112.885 121.125 112.63 120.937 112.443C120.75 112.255 120.495 112.15 120.23 112.15H97.03C94.26 112.15 92.33 111.31 91.24 109.65C90.21 107.91 89.7 104.85 89.7 100.48C89.7 96.18 90.24 93.12 91.34 91.32C92.49 89.52 94.33 88.62 96.84 88.62H120.81C121.075 88.62 121.33 88.5147 121.517 88.3272C121.705 88.1396 121.81 87.8853 121.81 87.62V62.42C121.81 62.1548 121.705 61.9005 121.517 61.7129C121.33 61.5254 121.075 61.42 120.81 61.42H77.64C72.18 61.42 68 63.2 65.11 66.73C62.21 70.2 60.77 74.57 60.77 79.85V120.98C60.77 122.97 61.61 126.13 62.31 128.06C63.08 129.99 64.24 131.76 65.78 133.36C67.5414 134.999 69.607 136.276 71.86 137.12C74.6036 138.138 77.5143 138.63 80.44 138.57H120.23Z" fill="white"/>
</g>
<defs>
<linearGradient id="paint0_linear" x1="-46.3078" y1="231.351" x2="100.002" y2="105.421" gradientUnits="userSpaceOnUse">
<stop stop-color="white"/>
<stop offset="1" stop-color="white" stop-opacity="0"/>
</linearGradient>
<linearGradient id="paint1_linear" x1="233.001" y1="-7.92717" x2="86.4095" y2="103.42" gradientUnits="userSpaceOnUse">
<stop stop-color="white"/>
<stop offset="1" stop-color="white" stop-opacity="0"/>
</linearGradient>
<linearGradient id="paint2_linear" x1="141.19" y1="80.5799" x2="141.19" y2="120.75" gradientUnits="userSpaceOnUse">
<stop stop-color="white" stop-opacity="0.25"/>
<stop offset="1" stop-color="white" stop-opacity="0"/>
</linearGradient>
<clipPath id="clip0">
<rect width="657" height="200" fill="white"/>
</clipPath>
</defs>
</svg>
