<svg width="273" height="74" viewBox="0 0 273 74" fill="none" xmlns="http://www.w3.org/2000/svg">
<g filter="url(#filter0_d)">
<mask id="mask0" mask-type="alpha" maskUnits="userSpaceOnUse" x="8" y="6" width="58" height="58">
<rect x="8" y="6" width="58" height="58" rx="15" fill="#C4C4C4"/>
</mask>
<g mask="url(#mask0)">
</g>
<mask id="mask1" mask-type="alpha" maskUnits="userSpaceOnUse" x="8" y="6" width="58" height="58">
<rect x="8" y="6" width="58" height="58" rx="15" fill="#C4C4C4"/>
</mask>
<g mask="url(#mask1)">
<rect x="14.9902" y="-12.7885" width="46.601" height="36.7785" transform="rotate(20.9213 14.9902 -12.7885)" fill="#3EC886"/>
<rect x="2.64648" y="21.8669" width="36.7785" height="37.5315" transform="rotate(20.9213 2.64648 21.8669)" fill="#077A7A"/>
<rect x="2.64648" y="21.8669" width="36.7785" height="37.5315" transform="rotate(20.9213 2.64648 21.8669)" fill="url(#paint0_linear)" style="mix-blend-mode:overlay"/>
<rect x="40.1875" y="26.6694" width="37.7116" height="45.6972" transform="rotate(20.9213 40.1875 26.6694)" fill="#34E5C1"/>
<rect x="50.4961" y="-0.305054" width="36.7785" height="42.8279" transform="rotate(20.9213 50.4961 -0.305054)" fill="#214485"/>
<rect x="50.4961" y="-0.305054" width="36.7785" height="42.8279" transform="rotate(20.9213 50.4961 -0.305054)" fill="url(#paint1_linear)" style="mix-blend-mode:overlay"/>
<path d="M42.8667 46.1856C43.0268 46.1856 43.1567 46.0558 43.1567 45.8956V38.8134C43.1567 38.6533 43.0268 38.5234 42.8667 38.5234H36.1376C35.336 38.5234 34.7767 38.2811 34.4598 37.7964C34.1615 37.293 34.0123 36.4075 34.0123 35.1397C34.0123 33.8907 34.1708 33.0051 34.4877 32.4831C34.8233 31.9611 35.3546 31.7001 36.0817 31.7001C36.9892 31.7001 40.9283 31.7001 43.0359 31.7001C43.1961 31.7001 43.3244 31.5703 43.3244 31.4101V24.1042C43.3244 23.944 43.1956 23.8142 43.0354 23.8142C38.625 23.8142 32.7058 23.8142 30.5168 23.8142C28.9322 23.8142 27.7204 24.3269 26.8814 25.3522C26.0425 26.359 25.623 27.6267 25.623 29.1554C25.623 35.0321 25.623 34.6412 25.623 41.0834C25.623 41.6613 25.8654 42.5782 26.0705 43.1375C26.2942 43.6968 26.6298 44.2095 27.0772 44.6756C27.5433 45.123 28.1305 45.4865 28.8389 45.7662C29.5474 46.0458 30.377 46.1856 31.3278 46.1856H42.8667Z" fill="white"/>
<path fill-rule="evenodd" clip-rule="evenodd" d="M51.5456 54.2849C51.5456 54.4451 51.4157 54.5749 51.2556 54.5749H31.3274C29.5746 54.5749 27.6578 54.3193 25.7583 53.5695C24.2133 52.9596 22.6479 52.0531 21.267 50.7275L21.1435 50.6089L21.0249 50.4854C19.8853 49.2983 18.9335 47.8847 18.2809 46.2532L18.2356 46.14L18.1936 46.0256C17.6599 44.5701 17.3732 43.0253 17.3732 41.4317C17.3732 41.1423 17.3659 40.6261 17.3475 39.837L17.3453 39.7395V39.642C17.3453 38.8755 17.3365 37.7193 17.3181 36.1537C17.2994 35.0274 17.2807 33.7467 17.2621 32.3124L17.2621 32.311C17.2434 30.8586 17.2334 29.7934 17.2334 29.1554C17.2334 26.0186 18.131 22.7628 20.4127 20.0099C23.1598 16.6726 26.9729 15.4249 30.5164 15.4249H51.2556C51.4157 15.4249 51.5456 15.5548 51.5456 15.7149V54.2849ZM26.8811 25.3522C26.0421 26.359 25.6227 27.6267 25.6227 29.1554C25.6227 33.552 25.6227 34.3889 25.6227 41.1417C25.6227 41.7196 25.865 42.5782 26.0701 43.1375C26.2938 43.6968 26.6294 44.2095 27.0768 44.6756C27.5429 45.123 28.1301 45.4865 28.8386 45.7662C29.547 46.0458 30.3766 46.1856 31.3274 46.1856H42.8663C43.0265 46.1856 43.1563 46.0558 43.1563 45.8956V38.8134C43.1563 38.6533 43.0265 38.5234 42.8663 38.5234H36.1373C36.1185 38.5234 36.0998 38.5233 36.0813 38.523C35.3095 38.5119 34.7689 38.2697 34.4594 37.7964C34.2957 37.5201 34.1769 37.1287 34.103 36.6222C34.0726 36.4132 34.0497 36.1847 34.0346 35.9366C34.0337 35.9231 34.0329 35.9095 34.0322 35.8958C34.0187 35.6611 34.012 35.409 34.012 35.1397C34.012 34.721 34.0298 34.343 34.0654 34.006C34.136 33.3377 34.2767 32.8301 34.4874 32.4831C34.5539 32.3797 34.6281 32.2865 34.71 32.2035C35.0413 31.8679 35.4984 31.7001 36.0813 31.7001H43.0341C43.1942 31.7001 43.3241 31.5703 43.3241 31.4101V24.1042C43.3241 23.944 43.1942 23.8142 43.0341 23.8142H30.5164C28.9318 23.8142 27.72 24.3269 26.8811 25.3522Z" fill="#214485"/>
</g>
<mask id="mask2" mask-type="alpha" maskUnits="userSpaceOnUse" x="8" y="6" width="58" height="58">
<path d="M8 20.5C8 12.4919 14.4919 6 22.5 6H51.5C59.5081 6 66 12.4919 66 20.5V49.5C66 57.5081 59.5081 64 51.5 64H22.5C14.4919 64 8 57.5081 8 49.5V20.5Z" fill="#C4C4C4"/>
</mask>
<g mask="url(#mask2)">
<path d="M69.664 34.7506C69.8529 34.8631 69.8529 35.1366 69.664 35.249L47.8716 48.2218C47.6783 48.3369 47.4333 48.1976 47.4333 47.9727L47.4333 22.027C47.4333 21.8021 47.6783 21.6628 47.8716 21.7778L69.664 34.7506Z" fill="#214485"/>
<path d="M58.624 34.8481C58.8128 34.9605 58.8128 35.234 58.624 35.3464L49.3693 40.8557C49.176 40.9707 48.931 40.8314 48.931 40.6065V29.5881C48.931 29.3631 49.176 29.2238 49.3693 29.3389L58.624 34.8481Z" fill="#3F85FD"/>
<path d="M58.624 34.8481C58.8128 34.9605 58.8128 35.234 58.624 35.3464L49.3693 40.8557C49.176 40.9707 48.931 40.8314 48.931 40.6065V29.5881C48.931 29.3631 49.176 29.2238 49.3693 29.3389L58.624 34.8481Z" fill="url(#paint2_linear)" style="mix-blend-mode:overlay"/>
</g>
</g>
<path d="M79.452 28.477C79.452 26.827 80.013 25.54 81.135 24.616C82.279 23.692 83.995 23.23 86.283 23.23C87.779 23.23 89.121 23.395 90.309 23.725V27.355C88.989 26.981 87.724 26.794 86.514 26.794C85.326 26.794 84.512 26.97 84.072 27.322C83.654 27.652 83.445 28.147 83.445 28.807V40.588C83.445 41.93 84.402 42.601 86.316 42.601C87.922 42.601 89.286 42.425 90.408 42.073V45.67C89.22 46 87.823 46.165 86.217 46.165C81.707 46.165 79.452 44.427 79.452 40.951V28.477ZM101.703 28.906C101.703 27.41 100.878 26.662 99.228 26.662C97.6 26.662 96.786 27.41 96.786 28.906V40.489C96.786 41.985 97.6 42.733 99.228 42.733C100.878 42.733 101.703 41.985 101.703 40.489V28.906ZM92.826 28.708C92.826 26.992 93.365 25.628 94.443 24.616C95.521 23.582 97.116 23.065 99.228 23.065C101.34 23.065 102.935 23.582 104.013 24.616C105.113 25.628 105.663 26.992 105.663 28.708V40.687C105.663 42.403 105.113 43.778 104.013 44.812C102.935 45.824 101.34 46.33 99.228 46.33C97.116 46.33 95.521 45.824 94.443 44.812C93.365 43.778 92.826 42.403 92.826 40.687V28.708ZM126.274 23.395V46H122.446V36.628C122.446 34.406 122.6 32.173 122.908 29.929L119.212 40.159H115.912L112.183 29.929C112.513 31.975 112.678 34.208 112.678 36.628V46H108.883V23.395H113.107L117.562 35.935L122.017 23.395H126.274ZM142.337 28.543V30.589C142.337 32.679 141.567 34.01 140.027 34.582C141.699 35.088 142.535 36.441 142.535 38.641V40.852C142.535 44.284 140.709 46 137.057 46H129.83V23.395H136.859C140.511 23.395 142.337 25.111 142.337 28.543ZM136.265 26.761H133.79V32.866H136.265C137.717 32.866 138.443 32.184 138.443 30.82V28.774C138.443 27.432 137.717 26.761 136.265 26.761ZM138.641 40.621V38.41C138.641 37.046 137.915 36.364 136.463 36.364H133.79V42.634H136.463C137.915 42.634 138.641 41.963 138.641 40.621ZM154.329 28.906C154.329 27.41 153.504 26.662 151.854 26.662C150.226 26.662 149.412 27.41 149.412 28.906V40.489C149.412 41.985 150.226 42.733 151.854 42.733C153.504 42.733 154.329 41.985 154.329 40.489V28.906ZM145.452 28.708C145.452 26.992 145.991 25.628 147.069 24.616C148.147 23.582 149.742 23.065 151.854 23.065C153.966 23.065 155.561 23.582 156.639 24.616C157.739 25.628 158.289 26.992 158.289 28.708V40.687C158.289 42.403 157.739 43.778 156.639 44.812C155.561 45.824 153.966 46.33 151.854 46.33C149.742 46.33 148.147 45.824 147.069 44.812C145.991 43.778 145.452 42.403 145.452 40.687V28.708ZM171.591 28.939C171.591 26.915 170.546 25.903 168.456 25.903H165.552V36.298H168.456C170.546 36.298 171.591 35.297 171.591 33.295V28.939ZM163.209 23.824H168.588C170.326 23.824 171.646 24.275 172.548 25.177C173.472 26.079 173.934 27.289 173.934 28.807V33.394C173.934 34.934 173.483 36.155 172.581 37.057C171.679 37.937 170.348 38.377 168.588 38.377H165.552V46H163.209V23.824ZM177.711 23.824H180.054V43.954H186.786V46H177.711V23.824ZM198.489 46L197.136 39.796H191.196L189.843 46H187.5L192.516 23.824H195.816L200.832 46H198.489ZM191.625 37.75H196.674L194.133 26.101L191.625 37.75ZM209.328 46H206.985V38.509L201.54 23.824H203.949L206.193 29.863C206.281 30.105 206.952 32.074 208.206 35.77C209.02 33.24 210.417 29.258 212.397 23.824H214.773L209.328 38.509V46ZM217.188 23.824H226.791V25.903H219.531V33.79H225.867V35.869H219.531V43.921H226.791V46H217.188V23.824ZM235.915 37.09H232.648V46H230.305V23.824H235.684C237.444 23.824 238.775 24.275 239.677 25.177C240.579 26.057 241.03 27.267 241.03 28.807V32.074C241.03 34.45 240.084 35.99 238.192 36.694L241.723 46H239.149L235.915 37.09ZM232.648 35.044H235.585C237.653 35.044 238.687 34.043 238.687 32.041V28.906C238.687 26.904 237.653 25.903 235.585 25.903H232.648V35.044Z" fill="#274B8F"/>
<defs>
<filter id="filter0_d" x="0" y="0" width="74" height="74" filterUnits="userSpaceOnUse" color-interpolation-filters="sRGB">
<feFlood flood-opacity="0" result="BackgroundImageFix"/>
<feColorMatrix in="SourceAlpha" type="matrix" values="0 0 0 0 0 0 0 0 0 0 0 0 0 0 0 0 0 0 127 0"/>
<feOffset dy="2"/>
<feGaussianBlur stdDeviation="4"/>
<feColorMatrix type="matrix" values="0 0 0 0 0 0 0 0 0 0 0 0 0 0 0 0 0 0 0.2 0"/>
<feBlend mode="normal" in2="BackgroundImageFix" result="effect1_dropShadow"/>
<feBlend mode="normal" in="SourceGraphic" in2="effect1_dropShadow" result="shape"/>
</filter>
<linearGradient id="paint0_linear" x1="13.3942" y1="73.6376" x2="40.8307" y2="23.8313" gradientUnits="userSpaceOnUse">
<stop stop-color="white"/>
<stop offset="1" stop-color="white" stop-opacity="0"/>
</linearGradient>
<linearGradient id="paint1_linear" x1="75.346" y1="-6.68442" x2="46.1794" y2="39.1313" gradientUnits="userSpaceOnUse">
<stop stop-color="white"/>
<stop offset="1" stop-color="white" stop-opacity="0"/>
</linearGradient>
<linearGradient id="paint2_linear" x1="51.4" y1="30.3161" x2="51.4" y2="40.0368" gradientUnits="userSpaceOnUse">
<stop stop-color="white" stop-opacity="0.25"/>
<stop offset="1" stop-color="white" stop-opacity="0"/>
</linearGradient>
</defs>
</svg>
