<svg xmlns="http://www.w3.org/2000/svg" fill="none" viewBox="0 0 657 200"><mask id="a" width="200" height="200" x="0" y="0" maskUnits="userSpaceOnUse"><rect width="200" height="200" fill="#C4C4C4" rx="50"/></mask><g mask="url(#a)"><path fill="#3EC886" d="M26.83-63.75L174.21-7.4l-45.29 118.46-147.38-56.34z"/><path fill="#077A7A" d="M-18.46 54.71L100 100 54.71 218.46l-118.45-45.29z"/><path fill="url(#paint0_linear)" d="M-18.46 54.71h126.82v126.82H-18.46z" transform="rotate(20.92 -18.46 54.71)" style="mix-blend-mode:overlay"/><path fill="#34E5C1" d="M110.98 71.27l118.46 45.29-56.27 147.19-118.46-45.29z"/><path fill="#214485" d="M145.29-18.46l118.46 45.29-51.48 134.66L93.8 116.21z"/><path fill="url(#paint1_linear)" d="M145.29-18.46h126.82v144.17H145.29z" transform="rotate(20.92 145.29 -18.46)" style="mix-blend-mode:overlay"/><path fill="#fff" d="M120.23 138.57a1 1 0 001-1v-24.42a1 1 0 00-1-1h-23.2c-2.77 0-4.7-.84-5.79-2.5-1.03-1.74-1.54-4.8-1.54-9.17 0-4.3.54-7.36 1.64-9.16 1.15-1.8 2.99-2.7 5.5-2.7h23.97a1 1 0 001-1v-25.2a1 1 0 00-1-1H77.64c-5.46 0-9.64 1.78-12.53 5.31-2.9 3.47-4.34 7.84-4.34 13.12v41.13c0 1.99.84 5.15 1.54 7.08.77 1.93 1.93 3.7 3.47 5.3a18.4 18.4 0 006.08 3.76 23.3 23.3 0 008.58 1.45h39.79z"/><path fill="#214485" fill-rule="evenodd" d="M150.16 166.5a1 1 0 01-1 1H80.44a52.1 52.1 0 01-19.2-3.47 47.28 47.28 0 01-15.49-9.8l-.43-.4-.4-.43a45.37 45.37 0 01-9.47-14.6l-.15-.39-.15-.39a45.9 45.9 0 01-2.83-15.84c0-1-.02-2.78-.09-5.5v-.67c0-2.65-.03-6.63-.1-12.03-.06-3.89-.13-8.3-.19-13.25-.06-5.01-.1-8.68-.1-10.88 0-10.82 3.1-22.05 10.96-31.54 9.48-11.5 22.63-15.81 34.84-15.81h71.52a1 1 0 011 1v133zM65.1 66.73c-2.9 3.47-4.34 7.84-4.34 13.12v41.33c0 2 .84 4.95 1.54 6.88.77 1.93 1.93 3.7 3.47 5.3a18.4 18.4 0 006.08 3.76 23.3 23.3 0 008.58 1.45h39.79a1 1 0 001-1v-24.42a1 1 0 00-1-1h-23.4c-2.66-.04-4.52-.88-5.59-2.5-.56-.96-.97-2.3-1.23-4.06-.1-.72-.18-1.5-.23-2.36l-.01-.14a45.68 45.68 0 01.11-6.52c.25-2.3.73-4.05 1.46-5.25.23-.36.48-.68.77-.96 1.14-1.16 2.71-1.74 4.72-1.74h23.98a1 1 0 001-1v-25.2a1 1 0 00-1-1H77.64c-5.46 0-9.64 1.78-12.53 5.31z" clip-rule="evenodd"/></g><mask id="b" width="200" height="200" x="0" y="0" maskUnits="userSpaceOnUse"><rect width="200" height="200" fill="#C4C4C4" rx="50"/></mask><g mask="url(#b)"><path fill="#214485" d="M212.63 99.14a1 1 0 010 1.72l-75.14 44.73a1 1 0 01-1.51-.86V55.27a1 1 0 011.5-.86l75.16 44.73z"/><path fill="#3F85FD" d="M174.57 99.48a1 1 0 010 1.71l-31.91 19a1 1 0 01-1.52-.86v-38a1 1 0 011.52-.85l31.9 19z"/><path fill="url(#paint2_linear)" d="M174.57 99.48a1 1 0 010 1.71l-31.91 19a1 1 0 01-1.52-.86v-38a1 1 0 011.52-.85l31.9 19z" style="mix-blend-mode:overlay"/></g><path fill="#214485" d="M239.7 83.73c0-4.2 1.42-7.47 4.28-9.83 2.91-2.35 7.28-3.52 13.1-3.52 3.81 0 7.23.42 10.25 1.26v9.24a35.42 35.42 0 00-9.66-1.43c-3.02 0-5.1.45-6.21 1.34-1.07.84-1.6 2.1-1.6 3.78v29.99c0 3.41 2.44 5.12 7.3 5.12 4.1 0 7.57-.45 10.42-1.34v9.16a40.11 40.11 0 01-10.66 1.25c-11.48 0-17.22-4.42-17.22-13.27V83.73zm56.63 1.1c0-3.81-2.1-5.72-6.3-5.72-4.14 0-6.21 1.9-6.21 5.71v29.49c0 3.8 2.07 5.7 6.22 5.7 4.2 0 6.3-1.9 6.3-5.7V84.82zm-22.6-.51c0-4.37 1.38-7.84 4.13-10.42 2.74-2.63 6.8-3.94 12.18-3.94 5.37 0 9.43 1.31 12.17 3.94 2.8 2.58 4.2 6.05 4.2 10.42v30.5c0 4.36-1.4 7.86-4.2 10.5-2.74 2.57-6.8 3.86-12.17 3.86-5.38 0-9.44-1.3-12.19-3.87-2.74-2.63-4.11-6.13-4.11-10.5v-30.5zm85.15-13.52v57.54h-9.75v-23.86c0-5.66.4-11.34 1.18-17.05l-9.4 26.04h-8.4L323 87.43c.84 5.2 1.26 10.89 1.26 17.05v23.86h-9.66V70.8h10.75l11.34 31.92 11.34-31.92h10.84zm40.89 13.1v5.2c0 5.33-1.96 8.72-5.88 10.17 4.25 1.29 6.38 4.73 6.38 10.33v5.63c0 8.74-4.65 13.1-13.94 13.1h-18.4V70.8h17.9c9.29 0 13.94 4.36 13.94 13.1zm-15.46-4.54h-6.3V94.9h6.3c3.7 0 5.55-1.73 5.55-5.2v-5.21c0-3.42-1.85-5.13-5.55-5.13zm6.05 35.28v-5.63c0-3.47-1.85-5.2-5.55-5.2h-6.8v15.96h6.8c3.7 0 5.55-1.71 5.55-5.13zm39.93-29.82c0-3.8-2.1-5.7-6.3-5.7-4.14 0-6.21 1.9-6.21 5.7v29.49c0 3.8 2.07 5.7 6.21 5.7 4.2 0 6.3-1.9 6.3-5.7V84.82zm-22.6-.5c0-4.37 1.38-7.84 4.12-10.42 2.75-2.63 6.8-3.94 12.18-3.94s9.44 1.31 12.18 3.94c2.8 2.58 4.2 6.05 4.2 10.42v30.5c0 4.36-1.4 7.86-4.2 10.5-2.74 2.57-6.8 3.86-12.18 3.86-5.37 0-9.43-1.3-12.18-3.87-2.74-2.63-4.11-6.13-4.11-10.5v-30.5zm66.54.59c0-5.15-2.66-7.73-7.98-7.73h-7.4v26.46h7.4c5.32 0 7.98-2.55 7.98-7.64V84.9zM452.9 71.89h13.7c4.42 0 7.78 1.15 10.08 3.44 2.35 2.3 3.52 5.38 3.52 9.24v11.68c0 3.92-1.14 7.03-3.44 9.32-2.3 2.24-5.68 3.36-10.16 3.36h-7.73v19.4h-5.97V71.9zm36.92 0h5.96v51.24h17.14v5.2h-23.1V71.9zm52.89 56.45l-3.45-15.8h-15.12l-3.44 15.8h-5.96l12.76-56.45h8.4l12.77 56.45h-5.96zm-17.47-21h12.85l-6.47-29.66-6.38 29.65zm45.06 21h-5.96v-19.07l-13.86-37.38h6.13l5.71 15.37c.22.62 1.93 5.63 5.12 15.03a945.98 945.98 0 0110.67-30.4h6.05l-13.86 37.38v19.07zm20-56.45h24.45v5.29h-18.48v20.08h16.13v5.29h-16.13v20.5h18.48v5.29H590.3V71.89zm47.67 33.77h-8.31v22.68h-5.97V71.89h13.7c4.48 0 7.86 1.15 10.16 3.44 2.3 2.24 3.44 5.32 3.44 9.24v8.32c0 6.05-2.4 9.97-7.22 11.76l8.99 23.69h-6.55l-8.24-22.69zm-8.31-5.21h7.47c5.27 0 7.9-2.55 7.9-7.65v-7.98c0-5.1-2.63-7.64-7.9-7.64h-7.47v23.27z"/><defs><linearGradient id="paint0_linear" x1="18.6" x2="110.3" y1="229.65" y2="59.78" gradientUnits="userSpaceOnUse"><stop stop-color="#fff"/><stop offset="1" stop-color="#fff" stop-opacity="0"/></linearGradient><linearGradient id="paint1_linear" x1="230.98" x2="133.81" y1="-39.94" y2="116.41" gradientUnits="userSpaceOnUse"><stop stop-color="#fff"/><stop offset="1" stop-color="#fff" stop-opacity="0"/></linearGradient><linearGradient id="paint2_linear" x1="141.19" x2="141.19" y1="80.58" y2="120.75" gradientUnits="userSpaceOnUse"><stop stop-color="#fff" stop-opacity=".25"/><stop offset="1" stop-color="#fff" stop-opacity="0"/></linearGradient></defs></svg>