<svg width="670" height="220" viewBox="0 0 670 220" fill="none" xmlns="http://www.w3.org/2000/svg">
<path d="M250 93.776C250 89.576 251.428 86.3 254.284 83.948C257.196 81.596 261.564 80.42 267.388 80.42C271.196 80.42 274.612 80.84 277.636 81.68V90.92C274.276 89.968 271.056 89.492 267.976 89.492C264.952 89.492 262.88 89.94 261.76 90.836C260.696 91.676 260.164 92.936 260.164 94.616V124.604C260.164 128.02 262.6 129.728 267.472 129.728C271.56 129.728 275.032 129.28 277.888 128.384V137.54C274.864 138.38 271.308 138.8 267.22 138.8C255.74 138.8 250 134.376 250 125.528V93.776Z" fill="#214485"/>
<path d="M306.639 94.868C306.639 91.06 304.539 89.156 300.339 89.156C296.195 89.156 294.123 91.06 294.123 94.868V124.352C294.123 128.16 296.195 130.064 300.339 130.064C304.539 130.064 306.639 128.16 306.639 124.352V94.868ZM284.043 94.364C284.043 89.996 285.415 86.524 288.159 83.948C290.903 81.316 294.963 80 300.339 80C305.715 80 309.775 81.316 312.519 83.948C315.319 86.524 316.719 89.996 316.719 94.364V124.856C316.719 129.224 315.319 132.724 312.519 135.356C309.775 137.932 305.715 139.22 300.339 139.22C294.963 139.22 290.903 137.932 288.159 135.356C285.415 132.724 284.043 129.224 284.043 124.856V94.364Z" fill="#214485"/>
<path d="M369.182 80.84V138.38H359.438V114.524C359.438 108.868 359.83 103.184 360.614 97.472L351.206 123.512H342.806L333.314 97.472C334.154 102.68 334.574 108.364 334.574 114.524V138.38H324.914V80.84H335.666L347.006 112.76L358.346 80.84H369.182Z" fill="#214485"/>
<path d="M410.071 93.944V99.152C410.071 104.472 408.111 107.86 404.191 109.316C408.447 110.604 410.575 114.048 410.575 119.648V125.276C410.575 134.012 405.927 138.38 396.631 138.38H378.235V80.84H396.127C405.423 80.84 410.071 85.208 410.071 93.944ZM394.615 89.408H388.315V104.948H394.615C398.311 104.948 400.159 103.212 400.159 99.74V94.532C400.159 91.116 398.311 89.408 394.615 89.408ZM400.663 124.688V119.06C400.663 115.588 398.815 113.852 395.119 113.852H388.315V129.812H395.119C398.815 129.812 400.663 128.104 400.663 124.688Z" fill="#214485"/>
<path d="M440.596 94.868C440.596 91.06 438.496 89.156 434.296 89.156C430.152 89.156 428.08 91.06 428.08 94.868V124.352C428.08 128.16 430.152 130.064 434.296 130.064C438.496 130.064 440.596 128.16 440.596 124.352V94.868ZM418 94.364C418 89.996 419.372 86.524 422.116 83.948C424.86 81.316 428.92 80 434.296 80C439.672 80 443.732 81.316 446.476 83.948C449.276 86.524 450.676 89.996 450.676 94.364V124.856C450.676 129.224 449.276 132.724 446.476 135.356C443.732 137.932 439.672 139.22 434.296 139.22C428.92 139.22 424.86 137.932 422.116 135.356C419.372 132.724 418 129.224 418 124.856V94.364Z" fill="#214485"/>
<path d="M484.535 94.952C484.535 89.8 481.875 87.224 476.555 87.224H469.163V113.684H476.555C481.875 113.684 484.535 111.136 484.535 106.04V94.952ZM463.199 81.932H476.891C481.315 81.932 484.675 83.08 486.971 85.376C489.323 87.672 490.499 90.752 490.499 94.616V106.292C490.499 110.212 489.351 113.32 487.055 115.616C484.759 117.856 481.371 118.976 476.891 118.976H469.163V138.38H463.199V81.932Z" fill="#214485"/>
<path d="M500.113 81.932H506.077V133.172H523.213V138.38H500.113V81.932Z" fill="#214485"/>
<path d="M553.002 138.38L549.558 122.588H534.438L530.994 138.38H525.03L537.798 81.932H546.198L558.966 138.38H553.002ZM535.53 117.38H548.382L541.914 87.728L535.53 117.38Z" fill="#214485"/>
<path d="M580.594 138.38H574.63V119.312L560.77 81.932H566.902L572.614 97.304C572.838 97.92 574.546 102.932 577.738 112.34C579.81 105.9 583.366 95.764 588.406 81.932H594.454L580.594 119.312V138.38Z" fill="#214485"/>
<path d="M600.602 81.932H625.046V87.224H606.566V107.3H622.694V112.592H606.566V133.088H625.046V138.38H600.602V81.932Z" fill="#214485"/>
<path d="M648.268 115.7H639.952V138.38H633.988V81.932H647.68C652.16 81.932 655.548 83.08 657.844 85.376C660.14 87.616 661.288 90.696 661.288 94.616V102.932C661.288 108.98 658.88 112.9 654.064 114.692L663.052 138.38H656.5L648.268 115.7ZM639.952 110.492H647.428C652.692 110.492 655.324 107.944 655.324 102.848V94.868C655.324 89.772 652.692 87.224 647.428 87.224H639.952V110.492Z" fill="#214485"/>
<g filter="url(#filter0_d)">
<path d="M179.82 14.0823L138.92 121.06L10 71.7768V60C10 32.3858 32.3858 10 60 10H160C167.041 10 173.743 11.4556 179.82 14.0823Z" fill="#3EC886"/>
<path d="M71.7677 210L110 110L10 71.7678V160C10 187.614 32.3858 210 60 210H71.7677Z" fill="#077A7A"/>
<path style="mix-blend-mode:overlay" d="M71.771 210L110 109.993L10 71.7666V160C10 187.614 32.3858 210 60 210H71.771Z" fill="url(#paint0_linear)"/>
<path d="M210 115.304L120.98 81.27L71.7672 210H160C187.614 210 210 187.614 210 160V115.304Z" fill="#34E5C1"/>
<path d="M209.564 166.634L103.8 126.21L148.232 10H160C187.614 10 210 32.3858 210 60V160C210 162.249 209.852 164.463 209.564 166.634Z" fill="#214485"/>
<path style="mix-blend-mode:overlay" d="M209.564 166.631L103.812 126.206L148.233 10H160C187.614 10 210 32.3858 210 60V160C210 162.248 209.852 164.462 209.564 166.631Z" fill="url(#paint1_linear)"/>
<path fill-rule="evenodd" clip-rule="evenodd" d="M159.867 177.207C160.055 177.02 160.16 176.765 160.16 176.5V148.048L210 118.378V101.618L160.16 71.9562V43.5C160.16 43.2348 160.055 42.9804 159.867 42.7929C159.68 42.6054 159.425 42.5 159.16 42.5H87.64C75.43 42.5 62.28 46.81 52.8 58.31C44.94 67.8 41.84 79.03 41.84 89.85C41.84 92.05 41.88 95.72 41.94 100.73C41.9942 105.204 42.0566 109.237 42.1124 112.844L42.13 113.98C42.2 119.38 42.23 123.36 42.23 126.01V126.68C42.3 129.4 42.32 131.18 42.32 132.18C42.3232 137.585 43.2813 142.948 45.15 148.02L45.45 148.8C47.635 154.232 50.8508 159.19 54.92 163.4L55.32 163.83L55.75 164.23C60.2246 168.476 65.4868 171.805 71.24 174.03C77.3643 176.385 83.8786 177.563 90.44 177.5H159.16C159.425 177.5 159.68 177.395 159.867 177.207ZM70.76 89.85C70.76 84.57 72.2 80.2 75.1 76.73H75.11C78 73.2 82.18 71.42 87.64 71.42H130.8C131.065 71.42 131.32 71.5254 131.507 71.7129C131.695 71.9004 131.8 72.1548 131.8 72.42V97.62C131.8 97.8852 131.695 98.1396 131.507 98.3271C131.32 98.5146 131.065 98.62 130.8 98.62H106.82C104.81 98.62 103.24 99.2 102.1 100.36C101.81 100.64 101.56 100.96 101.33 101.32C100.6 102.52 100.12 104.27 99.87 106.57C99.678 108.738 99.6413 110.917 99.76 113.09L99.77 113.23C99.82 114.09 99.9 114.87 100 115.59C100.26 117.35 100.67 118.69 101.23 119.65C102.3 121.27 104.16 122.11 106.82 122.15H130.22C130.485 122.15 130.74 122.255 130.927 122.443C131.115 122.63 131.22 122.885 131.22 123.15V147.57C131.22 147.835 131.115 148.09 130.927 148.277C130.74 148.465 130.485 148.57 130.22 148.57H90.43C87.5043 148.63 84.5935 148.138 81.85 147.12C79.597 146.276 77.5313 144.999 75.77 143.36C74.23 141.76 73.07 139.99 72.3 138.06C71.6 136.13 70.76 133.18 70.76 131.18V89.85Z" fill="#214485"/>
<path d="M184.57 109.48C184.717 109.569 184.838 109.695 184.923 109.844C185.007 109.994 185.051 110.163 185.051 110.335C185.051 110.507 185.007 110.676 184.923 110.826C184.838 110.975 184.717 111.101 184.57 111.19L152.66 130.19C152.508 130.283 152.334 130.333 152.156 130.336C151.978 130.338 151.803 130.294 151.648 130.206C151.493 130.118 151.364 129.991 151.275 129.837C151.185 129.683 151.139 129.508 151.14 129.33V91.3299C151.141 91.1528 151.189 90.979 151.279 90.8264C151.368 90.6738 151.497 90.5478 151.652 90.4613C151.807 90.3748 151.981 90.331 152.159 90.3343C152.336 90.3376 152.509 90.3878 152.66 90.4799L184.56 109.48H184.57Z" fill="#3F85FD"/>
<path style="mix-blend-mode:overlay" d="M184.57 109.48C184.717 109.569 184.838 109.695 184.923 109.844C185.007 109.994 185.051 110.163 185.051 110.335C185.051 110.507 185.007 110.676 184.923 110.826C184.838 110.975 184.717 111.101 184.57 111.19L152.66 130.19C152.508 130.283 152.334 130.333 152.156 130.336C151.978 130.338 151.803 130.294 151.648 130.206C151.493 130.118 151.364 129.991 151.275 129.837C151.185 129.683 151.139 129.508 151.14 129.33V91.3299C151.141 91.1528 151.189 90.979 151.279 90.8264C151.368 90.6738 151.497 90.5478 151.652 90.4613C151.807 90.3748 151.981 90.331 152.159 90.3343C152.336 90.3376 152.509 90.3878 152.66 90.4799L184.56 109.48H184.57Z" fill="url(#paint2_linear)"/>
<path d="M130.23 148.57C130.495 148.57 130.75 148.465 130.937 148.277C131.125 148.09 131.23 147.835 131.23 147.57V123.15C131.23 122.885 131.125 122.63 130.937 122.443C130.75 122.255 130.495 122.15 130.23 122.15H107.03C104.26 122.15 102.33 121.31 101.24 119.65C100.21 117.91 99.7 114.85 99.7 110.48C99.7 106.18 100.24 103.12 101.34 101.32C102.49 99.52 104.33 98.62 106.84 98.62H130.81C131.075 98.62 131.33 98.5147 131.517 98.3272C131.705 98.1396 131.81 97.8853 131.81 97.62V72.42C131.81 72.1548 131.705 71.9005 131.517 71.7129C131.33 71.5254 131.075 71.42 130.81 71.42H87.64C82.18 71.42 78 73.2 75.11 76.73C72.21 80.2 70.77 84.57 70.77 89.85V130.98C70.77 132.97 71.61 136.13 72.31 138.06C73.08 139.99 74.24 141.76 75.78 143.36C77.5414 144.999 79.607 146.276 81.86 147.12C84.6036 148.138 87.5143 148.63 90.44 148.57H130.23Z" fill="white"/>
</g>
<defs>
<filter id="filter0_d" x="2" y="4" width="216" height="216" filterUnits="userSpaceOnUse" color-interpolation-filters="sRGB">
<feFlood flood-opacity="0" result="BackgroundImageFix"/>
<feColorMatrix in="SourceAlpha" type="matrix" values="0 0 0 0 0 0 0 0 0 0 0 0 0 0 0 0 0 0 127 0"/>
<feOffset dy="2"/>
<feGaussianBlur stdDeviation="4"/>
<feColorMatrix type="matrix" values="0 0 0 0 0 0 0 0 0 0 0 0 0 0 0 0 0 0 0.25 0"/>
<feBlend mode="normal" in2="BackgroundImageFix" result="effect1_dropShadow"/>
<feBlend mode="normal" in="SourceGraphic" in2="effect1_dropShadow" result="shape"/>
</filter>
<linearGradient id="paint0_linear" x1="-36.3078" y1="241.351" x2="110.002" y2="115.421" gradientUnits="userSpaceOnUse">
<stop stop-color="white"/>
<stop offset="1" stop-color="white" stop-opacity="0"/>
</linearGradient>
<linearGradient id="paint1_linear" x1="243.001" y1="2.07283" x2="96.4095" y2="113.42" gradientUnits="userSpaceOnUse">
<stop stop-color="white"/>
<stop offset="1" stop-color="white" stop-opacity="0"/>
</linearGradient>
<linearGradient id="paint2_linear" x1="151.19" y1="90.5799" x2="151.19" y2="130.75" gradientUnits="userSpaceOnUse">
<stop stop-color="white" stop-opacity="0.25"/>
<stop offset="1" stop-color="white" stop-opacity="0"/>
</linearGradient>
</defs>
</svg>
