<svg xmlns="http://www.w3.org/2000/svg" fill="none" viewBox="0 0 255 255"><mask id="a" width="255" height="255" x="0" y="0" maskUnits="userSpaceOnUse" style="mask-type:alpha"><path fill="#49575F" d="M.03 0h255v255H.03z"/></mask><g mask="url(#a)"><path fill="#3EC886" d="m-67.728-241.226 334.362 130.773-99.653 266.69-334.362-130.772z"/><path fill="#077A7A" d="m-119.896 43.993 246.88 96.558-101.708 272.19-246.88-96.559z"/><path fill="url(#b)" d="M0 0h265.091v290.571H0z" style="mix-blend-mode:overlay" transform="matrix(.9313 .36424 -.35003 .93674 -119.896 43.993)"/><path fill="#34E5C1" d="M126.951 140.582 424.83 257.086l-83.836 224.36L43.115 364.94z"/><path fill="#214485" d="m244.507-174.019 258.65 101.16L385.58 241.796l-258.65-101.16z"/><path fill="url(#c)" d="M0 0h277.728v335.903H0z" style="mix-blend-mode:overlay" transform="matrix(.9313 .36424 -.35003 .93674 244.507 -174.019)"/><g filter="url(#d)"><path fill="#F1F2EC" d="M166.197 106.5h-1.333v3.334c0 1.1-.9 2-2 2h-6.667c-1.1 0-2-.9-2-2V106.5h-53.333v3.334c0 1.1-.9 2-2 2h-6.667c-1.1 0-2-.9-2-2V106.5h-1.333a3.99 3.99 0 0 0-4 4v56c0 2.217 1.783 4 4 4h1.333v-3.333c0-1.1.9-2 2-2h6.667c1.1 0 2 .9 2 2v3.333h53.333v-3.333c0-1.1.9-2 2-2h6.667c1.1 0 2 .9 2 2v3.333h1.333c2.217 0 4-1.783 4-4v-56c0-2.216-1.783-4-4-4Zm-65.333 51.334c0 1.1-.9 2-2 2h-6.667c-1.1 0-2-.9-2-2v-6.667c0-1.1.9-2 2-2h6.667c1.1 0 2 .9 2 2v6.667Zm0-16c0 1.1-.9 2-2 2h-6.667c-1.1 0-2-.9-2-2v-6.667c0-1.1.9-2 2-2h6.667c1.1 0 2 .9 2 2v6.667Zm0-16c0 1.1-.9 2-2 2h-6.667c-1.1 0-2-.9-2-2v-6.667c0-1.1.9-2 2-2h6.667c1.1 0 2 .9 2 2v6.667Zm45.333 34.666c0 1.1-.9 2-2 2h-33.333c-1.1 0-2-.9-2-2v-16c0-1.1.9-2 2-2h33.333c1.1 0 2 .9 2 2v16Zm0-28c0 1.1-.9 2-2 2h-33.333c-1.1 0-2-.9-2-2v-16c0-1.1.9-2 2-2h33.333c1.1 0 2 .9 2 2v16Zm18.667 25.334c0 1.1-.9 2-2 2h-6.667c-1.1 0-2-.9-2-2v-6.667c0-1.1.9-2 2-2h6.667c1.1 0 2 .9 2 2v6.667Zm0-16c0 1.1-.9 2-2 2h-6.667c-1.1 0-2-.9-2-2v-6.667c0-1.1.9-2 2-2h6.667c1.1 0 2 .9 2 2v6.667Zm0-16c0 1.1-.9 2-2 2h-6.667c-1.1 0-2-.9-2-2v-6.667c0-1.1.9-2 2-2h6.667c1.1 0 2 .9 2 2v6.667Z"/></g><path fill="#fff" d="M.03 0h255v255H.03z" style="mix-blend-mode:multiply"/><path fill="url(#e)" d="M.03 0h255v255H.03z"/><path fill="url(#f)" d="M.03 0h255v255H.03z" style="mix-blend-mode:color"/><path fill="url(#g)" d="M.03 0h255v255H.03z"/><path fill="url(#h)" fill-opacity=".2" d="M.03 0h255v255H.03z"/></g><defs><linearGradient id="b" x1="77.467" x2="297.743" y1="400.811" y2="28.533" gradientUnits="userSpaceOnUse"><stop stop-color="#fff"/><stop offset="1" stop-color="#fff" stop-opacity="0"/></linearGradient><linearGradient id="c" x1="187.651" x2="-44.666" y1="-50.034" y2="301.323" gradientUnits="userSpaceOnUse"><stop stop-color="#fff"/><stop offset="1" stop-color="#fff" stop-opacity="0"/></linearGradient><linearGradient id="e" x1="338.874" x2="-27.856" y1="-83.618" y2="221.481" gradientUnits="userSpaceOnUse"><stop stop-color="#46D6B3" stop-opacity="0"/><stop offset="1" stop-color="#297195"/></linearGradient><linearGradient id="f" x1="127.53" x2="127.53" y1="0" y2="255" gradientUnits="userSpaceOnUse"><stop stop-color="#3E87FF"/><stop offset="1" stop-color="#3E87FF"/></linearGradient><linearGradient id="g" x1="127.53" x2="127.53" y1="0" y2="255" gradientUnits="userSpaceOnUse"><stop stop-color="#fff" stop-opacity=".7"/><stop offset="1" stop-color="#fff" stop-opacity=".35"/></linearGradient><linearGradient id="h" x1="127.53" x2="127.53" y1="0" y2="255" gradientUnits="userSpaceOnUse"><stop offset=".594" stop-color="#3268C1" stop-opacity="0"/><stop offset="1" stop-color="#3268C1"/></linearGradient><filter id="d" width="85.333" height="71" x="84.864" y="106.5" color-interpolation-filters="sRGB" filterUnits="userSpaceOnUse"><feFlood flood-opacity="0" result="BackgroundImageFix"/><feColorMatrix in="SourceAlpha" result="hardAlpha" values="0 0 0 0 0 0 0 0 0 0 0 0 0 0 0 0 0 0 127 0"/><feOffset dy="7"/><feColorMatrix values="0 0 0 0 0.295833 0 0 0 0 0.295833 0 0 0 0 0.295833 0 0 0 0.33 0"/><feBlend in2="BackgroundImageFix" result="effect1_dropShadow"/><feBlend in="SourceGraphic" in2="effect1_dropShadow" result="shape"/></filter></defs></svg>