<svg width="1288" height="450" viewBox="0 0 1288 450" fill="none" xmlns="http://www.w3.org/2000/svg">
<g opacity="0.2" filter="url(#filter0_df)">
<rect width="354.63" height="322.826" rx="2" transform="matrix(0.953531 0.301295 -0.41979 0.907621 419.074 -384.244)" fill="#3EC886"/>
<rect width="353.653" height="313.376" rx="2" transform="matrix(0.953901 0.300121 -0.421276 0.906933 275.957 -76.9419)" fill="#009292"/>
<rect width="353.653" height="313.376" rx="2" transform="matrix(0.953901 0.300121 -0.421276 0.906933 275.957 -76.9419)" fill="url(#paint0_linear)" style="mix-blend-mode:overlay"/>
<rect width="382.439" height="261.671" rx="2" transform="matrix(0.953901 0.300121 -0.421276 0.906932 612.769 75.8926)" fill="#34E5C1"/>
<rect width="383.313" height="375.962" rx="2" transform="matrix(0.953901 0.300121 -0.421276 0.906932 778.297 -280.518)" fill="#26509E"/>
<rect width="383.313" height="375.962" rx="2" transform="matrix(0.953901 0.300121 -0.421276 0.906932 778.297 -280.518)" fill="url(#paint1_linear)" style="mix-blend-mode:overlay"/>
</g>
<defs>
<filter id="filter0_df" x="0.603027" y="-527.74" width="1286.67" height="1099.23" filterUnits="userSpaceOnUse" color-interpolation-filters="sRGB">
<feFlood flood-opacity="0" result="BackgroundImageFix"/>
<feColorMatrix in="SourceAlpha" type="matrix" values="0 0 0 0 0 0 0 0 0 0 0 0 0 0 0 0 0 0 127 0"/>
<feOffset dx="14" dy="82"/>
<feColorMatrix type="matrix" values="0 0 0 0 0.103056 0 0 0 0 0.233883 0 0 0 0 0.441667 0 0 0 1 0"/>
<feBlend mode="normal" in2="BackgroundImageFix" result="effect1_dropShadow"/>
<feBlend mode="normal" in="SourceGraphic" in2="effect1_dropShadow" result="shape"/>
<feGaussianBlur stdDeviation="72" result="effect2_foregroundBlur"/>
</filter>
<linearGradient id="paint0_linear" x1="103.348" y1="432.268" x2="314.354" y2="-8.86188" gradientUnits="userSpaceOnUse">
<stop stop-color="white"/>
<stop offset="1" stop-color="white" stop-opacity="0"/>
</linearGradient>
<linearGradient id="paint1_linear" x1="258.99" y1="-56.0008" x2="23.6118" y2="382.974" gradientUnits="userSpaceOnUse">
<stop stop-color="white"/>
<stop offset="1" stop-color="white" stop-opacity="0"/>
</linearGradient>
</defs>
</svg>
