<svg width="78" height="83" viewBox="0 0 78 83" fill="none" xmlns="http://www.w3.org/2000/svg">
<path d="M15.4846 60.525L55.7002 60.8249V39.4147H77.559V82.9245H15.4846V60.525Z" fill="black" fill-opacity="0.25"/>
<path d="M57.0478 14.3139C57.0478 13.3142 56.2623 12.5286 55.2625 12.5286H8.41593C7.41615 12.5286 6.63062 13.3142 6.63062 14.3139V20.0269H57.0478V14.3139Z" fill="#3363BC" fill-opacity="0.9"/>
<path d="M50.9057 2.38822C50.9057 1.38844 50.1202 0.602905 49.1204 0.602905H14.5568C13.557 0.602905 12.7715 1.38844 12.7715 2.38822V8.10121H50.9057V2.38822Z" fill="#3363BC" fill-opacity="0.55"/>
<circle cx="31.8234" cy="46.3548" r="12.7204" fill="black" fill-opacity="0.25"/>
<path d="M61.4038 24.455H2.27433C1.27455 24.455 0.489014 25.2405 0.489014 26.2403V66.6597C0.489014 67.6595 1.27455 68.445 2.27433 68.445H61.4038C62.4036 68.445 63.1892 67.6595 63.1892 66.6597V26.2403C63.1892 25.2405 62.4036 24.455 61.4038 24.455ZM31.8391 59.09C24.9121 59.09 19.1991 53.4484 19.1991 46.45C19.1991 39.523 24.8407 33.81 31.8391 33.81C38.8375 33.81 44.4791 39.523 44.4791 46.45C44.4791 53.4484 38.7661 59.09 31.8391 59.09Z" fill="#009191"/>
<path d="M61.4038 24.455H2.27433C1.27455 24.455 0.489014 25.2405 0.489014 26.2403V66.6597C0.489014 67.6595 1.27455 68.445 2.27433 68.445H61.4038C62.4036 68.445 63.1892 67.6595 63.1892 66.6597V26.2403C63.1892 25.2405 62.4036 24.455 61.4038 24.455ZM31.8391 59.09C24.9121 59.09 19.1991 53.4484 19.1991 46.45C19.1991 39.523 24.8407 33.81 31.8391 33.81C38.8375 33.81 44.4791 39.523 44.4791 46.45C44.4791 53.4484 38.7661 59.09 31.8391 59.09Z" fill="url(#paint0_linear)" fill-opacity="0.2"/>
<path d="M29.6963 40.2367C28.768 39.6654 27.554 40.3081 27.554 41.3793V51.5913C27.554 52.6625 28.768 53.3052 29.6963 52.7339L37.3375 47.6636C38.123 47.0923 38.123 45.9497 37.3375 45.3784L29.6963 40.2367Z" fill="#3C7BF2"/>
<defs>
<linearGradient id="paint0_linear" x1="63.1892" y1="24.455" x2="0.489014" y2="68.445" gradientUnits="userSpaceOnUse">
<stop stop-color="white"/>
<stop offset="1" stop-color="white" stop-opacity="0"/>
</linearGradient>
</defs>
</svg>
