<svg width="63" height="71" viewBox="0 0 63 71" fill="none" xmlns="http://www.w3.org/2000/svg">
<path fill-rule="evenodd" clip-rule="evenodd" d="M52.5 14.3049H39.935L47.985 6.28985C48.3113 5.96351 48.5702 5.5761 48.7468 5.14972C48.9234 4.72334 49.0143 4.26636 49.0143 3.80485C49.0143 3.34334 48.9234 2.88635 48.7468 2.45998C48.5702 2.0336 48.3113 1.64618 47.985 1.31985C47.6587 0.993513 47.2712 0.73465 46.8449 0.558039C46.4185 0.381428 45.9615 0.290527 45.5 0.290527C44.5679 0.290527 43.6741 0.660785 43.015 1.31985L31.5 12.8699L19.985 1.31985C19.6587 0.993513 19.2713 0.73465 18.8449 0.558039C18.4185 0.381428 17.9615 0.290527 17.5 0.290527C17.0385 0.290527 16.5815 0.381428 16.1551 0.558039C15.7288 0.73465 15.3413 0.993513 15.015 1.31985C14.6887 1.64618 14.4298 2.0336 14.2532 2.45998C14.0766 2.88635 13.9857 3.34334 13.9857 3.80485C13.9857 4.26636 14.0766 4.72334 14.2532 5.14972C14.4298 5.5761 14.6887 5.96351 15.015 6.28985L23.065 14.3049H10.5C7.71523 14.3049 5.04451 15.4111 3.07538 17.3802C1.10625 19.3494 0 22.0201 0 24.8049V59.8049C0 62.5896 1.10625 65.2603 3.07538 67.2295C5.04451 69.1986 7.71523 70.3049 10.5 70.3049H52.5C55.2848 70.3049 57.9555 69.1986 59.9246 67.2295C61.8938 65.2603 63 62.5896 63 59.8049V24.8049C63 22.0201 61.8938 19.3494 59.9246 17.3802C57.9555 15.4111 55.2848 14.3049 52.5 14.3049ZM56 59.8049C56 60.7331 55.6313 61.6234 54.9749 62.2797C54.3185 62.9361 53.4283 63.3049 52.5 63.3049H10.5C9.57174 63.3049 8.6815 62.9361 8.02513 62.2797C7.36875 61.6234 7 60.7331 7 59.8049V24.8049C7 23.8766 7.36875 22.9864 8.02513 22.33C8.6815 21.6736 9.57174 21.3049 10.5 21.3049H52.5C53.4283 21.3049 54.3185 21.6736 54.9749 22.33C55.6313 22.9864 56 23.8766 56 24.8049V59.8049ZM45.5012 40.2165C47.4342 40.2165 49.0012 38.6495 49.0012 36.7165C49.0012 34.7835 47.4342 33.2165 45.5012 33.2165C43.5682 33.2165 42.0012 34.7835 42.0012 36.7165C42.0012 38.6495 43.5682 40.2165 45.5012 40.2165ZM49.0012 50.717C49.0012 52.65 47.4342 54.217 45.5012 54.217C43.5682 54.217 42.0012 52.65 42.0012 50.717C42.0012 48.784 43.5682 47.217 45.5012 47.217C47.4342 47.217 49.0012 48.784 49.0012 50.717Z" fill="url(#paint0_linear)"/>
<defs>
<linearGradient id="paint0_linear" x1="63" y1="0.290527" x2="9.33607" y2="70.3048" gradientUnits="userSpaceOnUse">
<stop stop-color="#C4E1F5"/>
<stop offset="0.8125" stop-color="#8CE1D9"/>
</linearGradient>
</defs>
</svg>
