<svg width="31" height="34" viewBox="0 0 31 34" fill="none" xmlns="http://www.w3.org/2000/svg">
<path fill-rule="evenodd" clip-rule="evenodd" d="M25.5817 7.40433H19.6961L23.4668 3.65C23.6196 3.49714 23.7409 3.31567 23.8236 3.11595C23.9063 2.91623 23.9489 2.70217 23.9489 2.486C23.9489 2.26982 23.9063 2.05576 23.8236 1.85604C23.7409 1.65632 23.6196 1.47485 23.4668 1.32199C23.3139 1.16913 23.1324 1.04788 22.9327 0.96515C22.733 0.882423 22.5189 0.839844 22.3028 0.839844C21.8662 0.839844 21.4475 1.01328 21.1388 1.32199L15.745 6.73216L10.3512 1.32199C10.1984 1.16913 10.0169 1.04788 9.81717 0.96515C9.61745 0.882423 9.40339 0.839844 9.18721 0.839844C8.97104 0.839844 8.75698 0.882423 8.55726 0.96515C8.35754 1.04788 8.17607 1.16913 8.02321 1.32199C7.87035 1.47485 7.74909 1.65632 7.66637 1.85604C7.58364 2.05576 7.54106 2.26982 7.54106 2.486C7.54106 2.70217 7.58364 2.91623 7.66637 3.11595C7.74909 3.31567 7.87035 3.49714 8.02321 3.65L11.7939 7.40433H5.90832C4.6039 7.40433 3.3529 7.92251 2.43054 8.84488C1.50817 9.76725 0.98999 11.0182 0.98999 12.3227V28.7171C0.98999 30.0215 1.50817 31.2725 2.43054 32.1949C3.3529 33.1173 4.6039 33.6354 5.90832 33.6354H25.5817C26.8861 33.6354 28.1371 33.1173 29.0594 32.1949C29.9818 31.2725 30.5 30.0215 30.5 28.7171V12.3227C30.5 11.0182 29.9818 9.76725 29.0594 8.84488C28.1371 7.92251 26.8861 7.40433 25.5817 7.40433ZM27.2211 28.7171C27.2211 29.1519 27.0484 29.5689 26.7409 29.8764C26.4335 30.1838 26.0165 30.3566 25.5817 30.3566H5.90832C5.47352 30.3566 5.05652 30.1838 4.74906 29.8764C4.44161 29.5689 4.26888 29.1519 4.26888 28.7171V12.3227C4.26888 11.8879 4.44161 11.4709 4.74906 11.1634C5.05652 10.8559 5.47352 10.6832 5.90832 10.6832H25.5817C26.0165 10.6832 26.4335 10.8559 26.7409 11.1634C27.0484 11.4709 27.2211 11.8879 27.2211 12.3227V28.7171ZM22.3031 19.5416C23.2085 19.5416 23.9425 18.8076 23.9425 17.9021C23.9425 16.9967 23.2085 16.2627 22.3031 16.2627C21.3976 16.2627 20.6636 16.9967 20.6636 17.9021C20.6636 18.8076 21.3976 19.5416 22.3031 19.5416ZM23.9425 24.4598C23.9425 25.3653 23.2085 26.0993 22.3031 26.0993C21.3976 26.0993 20.6636 25.3653 20.6636 24.4598C20.6636 23.5544 21.3976 22.8204 22.3031 22.8204C23.2085 22.8204 23.9425 23.5544 23.9425 24.4598Z" fill="url(#paint0_linear)"/>
<defs>
<linearGradient id="paint0_linear" x1="30.5" y1="0.839844" x2="5.36312" y2="33.6354" gradientUnits="userSpaceOnUse">
<stop stop-color="#70E4BF"/>
<stop offset="1" stop-color="#588BE9"/>
</linearGradient>
</defs>
</svg>
